<?xml version="1.0" encoding="utf-8"?>
<!-- Generator: Adobe Illustrator 17.0.0, SVG Export Plug-In . SVG Version: 6.00 Build 0)  -->
<!DOCTYPE svg PUBLIC "-//W3C//DTD SVG 1.1//EN" "http://www.w3.org/Graphics/SVG/1.1/DTD/svg11.dtd">
<svg version="1.1" id="Ebene_1" xmlns="http://www.w3.org/2000/svg" xmlns:xlink="http://www.w3.org/1999/xlink" x="0px" y="0px"
	 width="210.722px" height="198.126px" viewBox="0 0 210.722 198.126" enable-background="new 0 0 210.722 198.126"
	 xml:space="preserve">
<g>
	<g>
		<defs>
			<rect id="SVGID_1_" x="0" width="210.722" height="198.126"/>
		</defs>
		<clipPath id="SVGID_2_">
			<use xlink:href="#SVGID_1_"  overflow="visible"/>
		</clipPath>
		<path clip-path="url(#SVGID_2_)" fill="#602483" d="M133.543,26.657v0.002c0.239-0.492,0.995-1.184,1.083-1.705
			c0.036-0.214-0.206-0.492-0.239-0.713c-0.031-0.164,0.159-0.517,0.217-0.639c0.261,0.199,0.545,0.064,0.49-0.346
			c-0.092-0.669,0.303-0.188,0.465-0.337c0.154-0.139,0.305,0.062,0.466-0.221c0.06-0.101-0.291-0.354-0.272-0.398
			c0.155-0.374,0.235-0.271,0.519-0.586c0.391-0.431,0.493-0.28,0.391-0.818c-0.078-0.409-0.471-0.098-0.372-0.7
			c0.085-0.523,1.194-1.02-0.199-1.383c-0.298-0.121-0.81-0.654-0.844-0.989c-0.028-0.298,0.195-0.562,0.097-0.857
			c-0.088-0.267-0.446,0.064-0.486-0.086c-0.077-0.313,0.092-0.649,0.078-0.962c-0.015-0.293-0.303-0.256-0.346-0.46
			c-0.086-0.386-0.059-0.889-0.071-1.3c-0.012-0.466-0.376-0.65-0.206-1.126c0.151-0.411,0.592-0.125,0.898-0.217
			c1.132-0.341,2.068-1.882,2.366-2.99c0.626-0.755,1.732,0.4,2.177-0.687c0.306-0.753,0.071-2.131-0.678-2.575
			c-0.26-0.663-0.412-1.502-0.788-2.085c-0.256-0.393-0.343-0.742-0.467-1.166c-0.067-0.225-0.155-1.002-0.296-1.151
			c-0.246-0.267-1.109-0.287-1.521-0.455c-0.365-0.151-1.016-0.79-1.071-0.819c-0.756-0.389-2.13-0.277-3.077-0.582
			c-0.604,0.149-1.381,0.505-2.008,0.348c-0.32-0.081-0.597-0.549-0.85-0.624c-0.498-0.148-1.552,0.302-2.05,0.747
			c-0.507,0.457-1.123,0.934-1.008,1.698c0.066,0.437,0.317,0.685,0.6,0.964c0.018,0.018,0.453,0.335,0.442,0.331
			c0.088,0.026,0.563-0.07,0.556-0.074c0.697,0.381,0.545,1.308,1.066,1.871c0.272,0.295,0.608,0.064,0.832,0.613
			c0.095,0.228,0.014,0.667,0.014,0.919c0,0.606-0.144,0.354,0.203,0.854c0.325,0.475,0.49,0.28,0.479,0.832
			c-0.007,0.451-0.369,1.297-0.431,1.829c-0.059,0.484-0.486,0.782-0.921,0.937c-0.91,0.324-1.253,0.229-1.872,1.144
			c-0.287,0.422-0.575,0.191-0.943,0.346c-0.372,0.157-0.648,0.465-1.042,0.623c-0.675,0.185-1.087-0.644-1.843-0.387
			c-0.522,0.183-1.001,0.632-1.534,0.855c-0.764,0.32-0.086,0.681-1.07,0.604c-0.662-0.05-1.525,0.092-2.147,0.276
			c-0.822,0.236-0.406,0.696-0.999,1.138c-0.331,0.247-1.16,0.164-1.624,0.418c-1.33,0.734-2.539,2.157-4.152,1.784
			c-0.354-0.492-0.637-0.949-1.279-1.022c-0.398-0.319-1.794-0.851-2.118-0.715c-0.398,0.169-1.484-0.451-2.022-0.496
			c-0.398-0.033-0.769-0.052-1.16-0.133c-0.247-0.049-0.946-0.332-1.149-0.32c-0.239,0.016-1.204,0.396-1.378,0.523
			c-0.571,0.413-0.461,0.361-0.347,1.391c-0.935,0.35-1.459-0.77-2.077-1.142c-0.409-0.247-0.847-0.249-1.326-0.052
			c-0.309,0.129-0.24-0.311-0.726-0.127c-0.892,0.344-0.77-0.366-1.179-0.857c-0.221-0.267-0.542-0.324-0.766-0.654
			c-0.151-0.222-0.155-0.486-0.258-0.739c-0.324-0.814-0.612-1.112-1.474-0.613c-0.181,0.106-0.416,0.14-0.575,0.291
			c-0.118,0.112-0.063,0.538-0.055,0.532c-0.372,0.271-1.153,0.245-1.613,0.421c-0.258,0.099-0.656,0.263-0.932,0.398
			c-0.664,0.323-0.343-0.042-0.682-0.227c-1.072-0.597-1.094-0.629-2.277,0.352c-0.007,1.212-0.663,0.26-1.558,0.332
			c-0.929,0.074-1.083,0.442-0.943,1.328c0.125,0.788,0.49,0.976-0.251,1.348c-0.239,0.121-0.427-0.015-0.678,0.129
			c-0.298,0.168-0.405,0.647-0.777,0.652c-0.56,0.009-1.326-1.131-1.414-0.34c-0.104,0.972-1.952,0.67-2.218,1.552
			c-0.265,0.893-0.707,0.705-1.477,0.831c-0.247,0.039-0.644,0.079-0.855,0.219c-0.435,0.292-0.405,0.791-0.836,1.045
			c-1.444,0.179-2.634-0.603-4.119,0.004c-0.604,0.249-0.828,0.826-1.33,1.106c-0.862,0.484-0.505-0.347-1.282-0.481
			c-0.35-0.06-1.23,0.638-1.385,0.944c-0.265,0.538,0.078,0.989-0.456,1.509c-1.212,1.184-4.203,0.724-5.695,0.801l-1.142,0.186
			c-0.556,0.068-1.226,0.022-1.691,0.383l-0.357,0.37l-0.191,0.339l-0.125,0.383l0.202,0.531c-0.11,0.797,0.188,1.851,0.206,2.689
			c0.033,1.667-0.405,1.723-1.617,0.486c-0.634,0.096-0.663,1.306-1.009,1.814c-0.232,0.488-1.702,0.435-2.255,0.626
			c-1.127,0.389-2.143,0.049-3.285,0.302c-0.501,0.35-0.381-0.217-0.762-0.363c-0.737-0.283-1.44-0.166-2.185-0.02
			c-0.365,0.277-1.177,1.321-1.549,1.437c-0.381,0.121-1.148-0.538-1.295-0.523c-0.394,0.035-0.851,0.562-1.286,0.79
			c-0.713,0.376-0.988,0.544-1.601,1.256c-0.19,0.151-0.275,0.352-0.26,0.597c0.276,0.985-0.304,1.374-0.829,2.168
			c-0.167,0.252-0.825,0.877-0.866,1.155c-0.072,0.512,0.225,0.715-0.09,1.286c-0.543,0.074-1.772-0.072-2.186,0.38
			c-0.224,0.243-0.053,0.569-0.147,0.698c-0.171,0.234-0.361,0.263-0.649,0.475c-0.305,0.227-0.711,0.833-1.085,0.884
			c-0.746,0.101-1.062-0.903-1.899-0.739c-0.453,0.075-1.459-0.057-1.845,0.127c-0.456,0.217-0.488,0.774-0.803,1.102
			c-0.446,0.464-2.313,1.258-2.831,0.669c-0.79-0.272-1.65,0.779-2.422,0.97l-2.929,0.527c0.057,0.685,0.183,1.391,0.107,2.078
			c-0.051,0.5,0.171,0.503,0.365,1.022c0.401,0.497,1.031,0.662,1.433,1.173c0.573,0.737,0.577,1.693,0.615,2.603
			c-0.049,0.311,0.188,0.947,0.029,1.195c-0.184,0.289-0.525,0.42-0.608,0.783c-0.094,0.4-0.508,0.637-0.582,1.046
			c-0.026,0.162,0.089,0.239-0.018,0.429c-0.44,0.755-0.862,0.65-1.68,0.728c-0.448,0.042-0.722-0.105-0.925,0.374
			c-0.206,0.482-0.243,0.851-0.818,1.053c0.053,1.056,0.295,1.698-0.153,2.679c0.068,1.011-0.943,1.254-0.843,2.324
			c0.083,0.91,0.525,1.063-0.109,1.999c-0.409,0.6-0.015,1.085,0.04,1.702c0.09,1.041-0.355,1.299-1.225,1.833
			c-0.485,0.488-1.199,0.67-1.859,0.475c-0.666-0.195-0.75,0.658-1.551,0.293c-0.969,0.551-0.558,1.236-1.024,2.039
			c-0.393,0.674-1.859,0.382-1.299,1.22c0.285,0.427,0.238,0.954,0.488,1.346c0.155,0.24,0.655,0.549,0.866,0.783
			c0.729,0.816,1.033,1.219,1.12,2.345c-0.289,0.77-1.732,0.219-2.413,0.221c0.005,0.267,0.077,1.079,0.18,1.304
			c0.178,0.409,0.689,0.455,0.611,0.978c-0.04,0.293-0.609,0.65-0.764,0.926c-0.072,0.125-0.145,0.623-0.179,0.66
			c-0.125,0.136-0.367-0.007-0.427,0.063c-0.048,0.053-0.288,0.231-0.378,0.31c-0.212,0.19,0.11,0.414-0.048,0.559
			c-0.335,0.306-1.083,0.149-1.488,0.105c-1.022-0.11-2.227-1.24-3.245-0.6v0.002c0.461,0.396,0.658,0.002,1.107,0.116
			c0.269,0.068,0.536,0.289,0.78,0.396c0.317,0.138,0.84,0.333,1.295,0.516c0.744,0.3,0.857,0.173,0.949,0.978
			c0.037,0.337,0.02,1.372-0.575,1.177c0.052,0.329-0.132,0.805,0.076,0.943c0.176,0.113,0.746-0.326,1.149-0.017
			c-0.186,0.094-0.256,0.175-0.396,0.205c0.306-0.015,0.623-0.061,0.938,0.07c0.184-0.455,0.687-0.33,0.889,0.051
			c0.436,0.803-0.506,0.376-0.54,0.466c-0.184,0.51,0.326,0.337,0.664,0.74c0.486,0.58,0.228,0.248-0.114,0.624
			c-0.166,0.181-0.461-0.048-0.566,0.234c-0.074,0.19,0.341,0.654,0.431,0.808c0.195,0.338,0.674,0.243,0.984,0.52
			c0.685,0.615,0.418,1.463,1.383,1.983h-0.002c0.035,0.024,0.066,0.048,0.101,0.072c0.69,0.492,1.7,0.289,2.496,0.304
			c0.407,0.007,0.691-0.256,0.98,0.06c0.124,0.135,0.103,0.896,0.231,1.124c0.343,0.619,0.93,0.738,1.564,1.215
			c0.565,0.43,0.989,1.337,1.602,1.625c1.619,0.759,2.505,0.976,2.892,2.779c0.083,0.391,0.381,1.562,1.127,1.319
			c0.32-0.105,0.221-0.652,0.698-0.761c0.212-0.048,0.735,0.241,0.923,0.272c-0.171-0.757-1.109-0.736-1.586-1.066
			c-0.308-0.216-0.601-0.011-0.17-0.521c0.396-0.468,0.355-1.094,0.571-1.616c-0.724-0.153,0.16-0.827,0.431-1.146
			c0.56,0.339,0.674,0.826,0.252,1.23c0.118,0.028,0.34,0.104,0.53,0.166c0,0,0.225,0.075,0.225,0.213
			c0,0.136-0.341,0.534-0.252,0.54c0.076,0.011,0.156,0.017,0.234,0.015c0.321,0.024,0.652-0.006,0.919-0.166
			c-1.043,0.185-0.21-0.716-0.129-1.013c0.361,0.11,0.774,0.236,1.129,0.028c-0.072,0.216-0.06,0.468-0.103,0.643
			c0.028-0.002,0-0.097,0.044-0.138c0.193,0.358,1.711,0.407,1.4,0.84c0.453-0.072,0.965-0.003,1.39-0.191
			c-0.672-0.199,0.256-2.004,1.205-1.042c0.291,0.287,0.969,0.735,1.138,1.14c0.237,0.567-0.053,0.19-0.085,0.574
			c-0.046,0.553-0.12,1.026,0.195,1.542c0.184,0.302,0.678,0.458,0.788,0.827c0.098,0.332-0.055,0.741-0.297,0.275
			c-0.265-0.503-0.681-0.597-1.225-0.772c-0.678-0.213-0.07,1.175-0.52,1.336c-0.39,0.138-1.197-0.678-1.363-0.892
			c-0.057-0.074,0.149-0.4,0.02-0.521c-0.159-0.153-0.219,0-0.323-0.072c0.242,0.167-0.93-0.18-0.648-0.175
			c-0.457-0.011-1.015,0.194-1.532-0.04c0.053,0.6-0.52,0.93-1.087,0.886c0.077-0.346-0.064-0.613-0.282-0.892
			c-0.413,1.123-0.787,1.367-1.747,0.797c-0.221-0.131-0.009-0.532-0.355-0.409c-0.153,0.053-0.136,0.567-0.147,0.68
			c-0.109,0.864,0.298,0.711,0.785,1.34c0.602,0.779,0.048,0.259-0.483,0.849c-0.258,0.287-0.335,0.811-0.227,1.205
			c0.291,1.062,1.376,1.622,2.087,0.912c0.72-0.724,0.658-1.334,1.394-0.185c0.416,0.647,0.52,1.33,0.895,1.975
			c0.604,1.031,1.218,0.114,1.951,0.609c0.053,0.035,0.438,0.739,0.516,0.849c0.199,0.28,0.501,0.654,0.615,0.972
			c0.147,0.429,0.078,1.063,0.066,1.511c-0.003,0.164,0.313,0.862,0.466,0.902c0.464,0.125,0.481-0.401,0.798-0.548
			c0.639-0.301,0.369-0.313,0.468,0.364c0.035,0.223,0.278,0.45,0.09,0.528c-0.038,0.021,0.866,1.054,0.678,1.551
			c1.111-0.298-0.612,0.378-0.35,0.057c-0.134,0.164-0.173,0.858,0.355,0.844c0.175-0.006,0.774-0.367,0.864,0.162
			c0.052,0.3-0.482,0.859-0.658,0.44c-0.436,0.501,0.673,0.761-0.156,1.074c0.358,0.094,0.801-0.03,1.122,0.174
			c0.219,0.139,0.107,0.602,0.448,0.729c0.643,0.236,0.669-0.992,0.967-1.079c0.42-0.121,0.46,0.38,0.961-0.064
			c0.26-0.23,0.241-0.716,0.326-0.823c0.092-0.116,0.387-0.425,0.577-0.545c0.072-0.046,0.77-0.543,0.819-0.624
			c0.354-0.586-0.081-1.514-0.4-1.934c-0.171-0.225-0.877-0.442-0.663-0.871c0.213-0.428,0.591,0.07,0.803,0.239
			c0.736,0.592,0.429,1.479,1.007,2.058c0.278,0.276,1.094,0.409,1.42,0.543c0.092,0.039-0.095,0.293,0.114,0.37
			c0.14,0.053,0.473-0.256,0.672-0.197c0.776,0.23,0.508,0.927,0.785,1.525c-0.26-0.083-1.7-0.836-1.042-0.203
			c0.248,0.24,1.385,0.527,1.722,0.392c0.398-0.161,0.542-0.737,1.002-1c0.536-0.308,0.759-0.869,1.414-1.061
			c0.46-0.132,1.489-0.213,1.958-0.149c0.444,0.059,1.122,0.761,1.205-0.131c0.063-0.645,0.178-0.783,0.705-1.161
			c0.283-0.206,0.162-0.381,0.534-0.418c0.247-0.024,0.685,0.401,1.042,0.385c1.08-0.59,0.704-1.443,2.24-1.249
			c0.73,0.093,1.227-0.116,1.967,0.079c0.387,0.105,0.766,0.263,1.172,0.297c0.486,0.04,0.461,0.468,0.917,0.499
			c0.531,0.035,0.243,0.494,0.719,0.3c0.121-0.051,0.39-0.648,0.567-0.781c0.972-0.73,2.848,0.398,3.746-0.369
			c0.011-0.009,0.151-0.814,0.133-0.857c-0.225-0.449-0.534-0.069-0.471-0.685c0.022-0.214,0.394-0.39,0.416-0.501
			c0.011-0.063-0.122-0.482-0.144-0.438c0.21-0.457-0.284-0.446,0.611-0.199c0.8,0.221,1.124,0.499,1.768,1.102
			c0.214,0.199,0.674,0.497,0.799,0.766c0.188,0.391-0.025,0.503,0.107,0.774c0.31,0.626,1.452,1.37,1.614,0.179
			c0.069-0.511-0.446-0.595-0.151-1.168c0.221-0.431,0.486-0.412,0.932-0.355c0.196-0.431-0.405-0.563-0.191-0.819
			c0.258-0.304,0.77,0.062,0.95,0.278c0.427,0.52,0.052,1.203,0.954,1.544c0.611,0.231,1.455,0.313,1.948,0.746
			c0.21,0.187-0.453,0.455-0.254,0.788c0.398,0.663,1.971-0.072,2.52-0.182c0.678-0.14,0.482,0.851,1.112,1.004
			c0.173,0.04,1.116-0.094,0.94-0.402c-0.166-0.291-0.726,0.101-0.803,0.024c-0.84-0.84,3.776-0.785,2.435,0.079
			c1.172,0.227,0.866-0.776,1.518-0.995c0.545-0.185,1.087,0.571,0.755,1.018c0.655,0.125,1.249-0.23,1.993-0.04
			c0.151,0.304-1.348,0.775-0.534,0.96c1.403,0.32,0.339,1.031-0.398,1.687c-1.079,0.929-2.384,0.837-3.669,0.716
			c-1.065-0.102-2.122,0.855-2.792,1.67c0.361-0.122,2.679,0.272,2.991,0.953c0.343,0.745-0.531,1.122-0.969,1.327
			c-0.943,0.438-1.241,0.359-2.181-0.088c-1.437-0.685-2.535-1.759-4.07-2.265c-1.172-0.385-2.369-0.658-3.566-0.957
			c-1.053-0.266-1.82-0.165-2.962-0.036c-0.803-0.253-1.48-0.725-2.295-0.585c-0.755,0.129-1.467,0.105-2.163-0.045
			c-0.099-0.022-0.865-0.237-0.965-0.289c-0.439-0.221-0.361-0.428-0.641-0.697c-0.708-0.679-1.216-0.444-2.137-0.665
			c-0.645-0.155-0.512-0.37-0.946-0.683c-0.354-0.254-0.442-0.177-0.914-0.298c-0.903-0.236-1.433-0.013-2.35,0.038
			c-0.733,0.04-0.567-0.142-1.308,0.426c-0.519,0.4-0.877,0.65-1.229,1.191c-0.44,0.676-0.327,1.273-0.601,2.016
			c-0.678,1.814-1.599,2.467-3.476,2.467c-0.694,0-1.221-0.398-1.87-0.553c-0.556-0.132-1.264,0.155-1.68-0.235
			c0.125,0.186,0.217,0.385,0.205,0.608c-0.356-0.062-0.532-0.397-0.669-0.722c-0.409,0.588,0,1.606,0.181,2.237
			c0.011,0.765-0.411,1.209-0.615,1.908c-0.199,0.673-0.451,1.293-0.708,1.939c0.197-0.812,1.037-0.512,0.485,0.186
			c-0.201,0.254-0.359,0.401-0.669,0.173c-0.107,0.605-0.634,1.149-1.01,1.612c-0.234,0.288-0.405,0.644-0.779,0.784
			c-0.289,0.113-0.888-0.153-0.943-0.128c-0.455,0.197-0.435,1.049-0.448,1.623c-0.02,0.849,0.164,1.267,1.08,1.44
			c1.138,0.214,2.522,0.015,3.47,0.897c1.112,1.037,0.696,2.739,1.171,3.95c0.702-2.31,3.128,0.207,4.52,0.796
			c2.31,0.976,3.524,2.751,4.913,4.801c0.726,1.245,0.999,2.216,0.39,3.515c-0.523,1.115-1.529,1.565-1.676,2.872
			c-0.089,0.822,0.335,2.892,0.969,3.441c0.693,0.605,2.151,1.393,2.081,2.439c0.173-0.419,0.358-0.459,0.365-0.014
			c1.234-0.457,0.733,0.877,0.733,1.329c0,0.635,0.147,1.069,0.202,1.672c0.07,0.815,0.918,1.157,1.636,1.157
			c0.383,0,0.324-0.085,0.796-0.194c0.284-0.067,0.626-0.377,0.862-0.041c0.376,0.538,0.715,1.124,1.234,1.504
			c0.228,0.166,0.221,0.717,0.615,0.239c0.166-0.199,0.379-0.568,0.505-0.792c0.177-0.324,0.807-1.331,0.755-1.502
			c-0.011-0.027-0.692-0.42-0.781-0.535c-0.055-0.078-0.262-0.675-0.287-0.763c-0.206-0.729-0.162-1.378-0.188-2.118
			c-0.022-0.788-0.608-1.319-0.14-2.013c0.722-1.077,2.553-1.685,3.761-1.699c0.976-0.012,0.976,0.162,1.024,1.031
			c0.055,0.983-0.202,1.856,0.571,2.314c0.682,0.402,0.582-0.152,1.175-0.152c0.586-0.004,0.929,0.59,1.282,0.976
			c0.818,0.896,1.547,1.769,2.177,2.859c0.372,0.476,0.722,0.844,1.142,1.22c0.416,0.369,0.277-0.376,0.431,0.327
			c0.015,0.062-0.262,0.31-0.247,0.483c0.014,0.154,0.162,0.292,0.177,0.417c0.007,0.084,0.269,0.154,0.295,0.272
			c0.033,0.151-0.247,0.194-0.225,0.365c0.059,0.394,1.301,2.895,0.508,2.608c-0.228,0.523-0.39,0.762,0.015,1.293
			c0.431,0.568,0.611,0.258,1.068,0.339c0.258,0.045,0.866,0.173,1.123,0.324c0.737,0.443,0.788,1.267,1.352,1.942l0.173-0.5
			c-0.059-0.23-0.099-0.369-0.144-0.609c-0.026-0.147-0.225-0.139-0.239-0.294c-0.007-0.132,0.213-0.224,0.206-0.31
			c-0.037-0.556-0.044-1.021-0.368-1.566c-0.398-0.681-0.405-0.857-0.56-1.62c-0.033-0.177-0.781-1.698-0.11-1.621
			c0.305,0.034,0.718,0.505,0.788-0.155c0.051-0.444-0.486-0.475-0.593-0.821c-0.442-1.459,1.256,0.247,0.8-0.884
			c-0.203-0.483-0.667-0.128-0.671-0.814c-0.007-0.516,0.428-0.542,0.604-0.903c0.354-0.732-0.276-1.252,0.582-1.975
			c0.663-0.559,2.803-1.175,3.676-0.954c0.67,0.17,0.965,1.006,1.315,1.618c0.272,0.471,0.317,0.656,0.394,1.167
			c0.063,0.42-0.184,0.712,0.298,0.973c0.247-1.897,1.625,0.737,1.993,1.083c0.63,0.604,1.057,0.789,1.525,1.462
			c0.292,0.424,0.59,0.796,1.138,0.778c0.678-0.022,0.652-0.593,1.415-0.1c0.582,0.379,0.357,0.556,0.63,1.068
			c0.247,0.464,0.734,0.837,1.264,0.881c0.656,0.059,0.987-0.46,1.698-0.343c1.157-0.45-1.083-1.142-1.223-1.305
			c-0.534-0.618,0.081-1.407-0.811-1.904c-0.773-0.431-1.245-0.36-1.882-1.097c-0.424-0.486-1.621-1.661-0.571-2.251
			c-0.612,0.185-0.921-0.711-0.67-1.189c0.28-0.531,0.84,0,1.061-0.178c0.387-0.301,0.608-1.668-0.277-1.643
			c0.693-0.582-0.457-1.075-0.832-1.345c-0.464-0.336-0.648-1.153-0.983-1.694c-0.31-0.498-0.907-1.234-1.08-1.701
			c-0.202-0.553,0.151-1.286-0.574-2.037c-0.575-0.182-0.457-0.582-0.593-0.821c-0.011-0.019,0.32-0.276-0.022-0.336
			c-0.159-0.031-0.28-0.058-0.387-0.188c-0.313-0.372-0.063-0.457-0.586-0.583c-0.379-0.09-0.383,0.439-0.762,0.259
			c-0.77-0.366-0.225-1.461-0.38-1.997c-0.184-0.639-1.135-1.081-1.481-1.727c-0.516-0.967-1.577-2.787-2.715-3.357
			c-0.461-0.228-0.1-0.53-0.225-0.823c-0.111-0.257-0.298-0.391-0.45-0.63c-0.199-0.321-0.56-0.673-0.693-1.014
			c-0.158-0.423-0.055-0.854-0.25-1.276c-0.387-0.609-0.627-1.355,0.092-1.82c0.339-0.221,0.516-0.272,0.88-0.104
			c0.435,0.199,0.022,0.333,0.199,0.503c0.298,0.292,1.061,1.094,1.478,1.082c0.254-0.006,1.204-0.681,1.356-0.787
			c1.356,0.596,1.933,0.308,2.424,1.77c0.092-0.233,0.593-0.872,0.906-0.689c0.468,0.278-0.048,0.536,0.28,0.644
			c0.479,0.16,0.969-0.492,1.551-0.201c0.394,0.197,0.457,0.539,0.601,0.929c-0.785-0.225-0.221,0.326-0.563,0.623
			c-0.192,0.166-0.781,0.205-0.87,0.373c-0.092,0.178,0.328,0.986,0.383,1.021c0.475,0.283,0.969-0.221,1.367,0.387
			c-0.777,0.301,0.354,0.228,0.634,0.255c-0.527,0.338-0.059,0.665,0.409,0.579c1.094-0.211,0.018-0.848,0.11-1.071
			c0.192-0.444,0.766-0.391,1.223-0.571c0.11-0.044,0.501,0,0.571-0.099c0.247-0.358-0.17-0.153-0.251-0.272
			c-0.11-0.159-0.298-0.37-0.343-0.429c-0.092-0.125-0.343,0.188-0.339-0.224c0.007-0.689,1.009-0.553,1.264-0.694
			c0.435-0.243,0.626-0.75,1.399-0.855c0.903-0.125,1.529-0.303,2.373-0.682c0.722-0.266,1.297-0.453,0.95-1.281
			c-0.188-0.463-1.304-0.736-1.728-0.874c-0.181-0.061-1.076,0.031-1.201-0.092c-0.435-0.432,0.435-0.241,0.214-0.576
			c-0.188-0.287-0.903-0.213-1.035-0.505c-0.085-0.183,0.508-1.236,0.431-1.66c-0.133-0.755-0.726-0.827-1.337-0.537
			c-0.203,0.093-0.741,0.399-0.777,0.639c-0.052,0.337,0.258,0.208,0.542,0.484c0.42,0.41,1.175,1.022,0.626,1.533
			c-0.718,0.671-2.372-0.801-3.319-0.685c-0.298-0.092-0.807-0.291-1.02-0.524c-0.269-0.294-0.107-0.339-0.251-0.712
			c-0.202-0.529-0.254-2.262-0.865-2.243c-0.766-0.217-0.895-0.704-0.601-1.072c0.424-0.536,1.234-0.469,0.483-1.522
			c-0.796-1.107-1.96-0.399-3.002-0.399c-0.593,0-1.054,0.117-1.198-0.633c-0.048-0.26,0.125-1.502,0.339-1.499
			c0.559,0.012,0.998-0.007,1.536-0.154c0.98-0.263,1.305-1.287,2.232-1.64c0.91-0.85,1.444-0.779,2.546-1.01
			c0.582-0.119,1.842-0.195,2.266-0.529c-0.177,0.004-0.368-0.077-0.546-0.077c0.52-0.502,0.969-1.067,1.551-1.526
			c0.232-0.182,0.538-0.515,0.81-0.637c0.369-0.164,0.578,0.037,0.984-0.219c0.708-0.45,1.043,0.665,0.627,1.127
			c-0.567,0.627-0.461,1.048,0.42,0.973c0.21-0.015,0.917,0.193,0.984,0.254c-0.195-0.19,0.6,0.266,0.158,0.185
			c-0.106-0.018-0.206,0.28,0.059,0.284c0.158,0.002,0.586-0.396,0.715-0.518c0.405-0.379,0.461,0.247,0.681,0.438
			c0.56,0.489,1.031,1.027,1.562,1.567c0.17,0.172,0.508,0.526,0.663,0.752c0.129,0.184-0.037,0.49,0.262,0.734
			c0.018-0.091,0.17-0.284,0.185-0.351c0.424,0.668,0.276-0.117,0.46-0.208c0.191-0.093,0.401-0.26,0.762-0.145
			c0.796,0.254,1.392,0.858,1.779,1.402c0.117,0.166,0.08,0.537,0.247,0.671c0.102,0.084,0.512,0.15,0.519,0.161
			c0.033,0.031,0.159-0.172,0.266-0.046c0.074,0.08-0.033,0.246,0.007,0.306c0.089,0.132,0.008,0.462,0.089,0.618
			c0.321,0.636,1.08,0.543,1.75,0.523c0.682-0.02,1.352-0.696,1.053-1.444c-0.276-0.689-0.022-1.255-0.025-1.919
			c-0.015-0.832-0.951-1.015-0.958-1.603c0-0.266-0.015-0.729-0.202-0.94c-0.291-0.339-0.586-0.132-0.862-0.344
			c-0.697-0.546,0.331-0.37,0.291-0.606c-0.077-0.421-0.903-0.494-0.895-0.774c0.01-0.481-0.232-0.752-0.259-1.194
			c-0.014-0.284,0.376-0.71,0.195-0.945c-0.358-0.473-0.538-0.952-0.799-1.435c-0.187-0.35-0.792-0.865-0.788-1.263
			c0.003-0.573,1.027-1.542,1.529-1.163c-0.067-0.525,0.159-1.472-0.247-1.825c-0.52-0.459-1.3-0.696-1.882-1.098
			c-1.558-1.072-4.453-1.916-6.325-1.282c-0.302,0.201-0.667,0.234-0.984,0.057c-0.869-0.542-1.319-1.068-1.967-1.731
			c-0.089-0.092-0.405-0.063-0.538-0.173c0.022,0.02-0.067-0.407-0.103-0.472c-0.099-0.173-0.349-0.195-0.424-0.394
			c-0.051-0.151,0.302-0.177,0.266-0.262c-0.361-0.765-0.811-0.923-1.559-0.626c-0.162,0.063,0.022,0.357-0.342,0.394
			c-0.324,0.035-0.659-0.04-0.98-0.075c-0.512-0.055-0.987,0.006-1.503,0.057c-0.619,0.087-1.08,0.182-1.628,0.49
			c-0.243-0.538,1.529-1.208,0.288-1.164c-0.582,0.022-1.33-0.912-1.654-0.212c-0.251-1.284,1.731-1.416,0.136-2.453
			c-0.612-0.394-1.054-0.089-1.702-0.225c-0.416-0.084-0.943-0.681-1.381-0.413c-0.52,0.317,0.305,0.221,0.273,0.643
			c-0.044,0.54-0.589,0.341-0.862,0.529c-0.412,0.287-0.302,0.702-0.921,0.496c-0.409-0.139-0.671-0.765-0.903-1.083
			c-0.542-0.746-0.564-1.794-1.573-1.801c-0.711-0.006-1.426,0.578-2.144-0.002c-0.659-0.53-0.674,0.262-1.025,0.332
			c-0.416,0.081-0.387-0.064-0.884-0.256c-0.803-0.312-1.521,0.442-2.207-0.256c-0.265-0.269-0.689-0.396-0.91-0.654
			c-0.431-0.497-0.206-0.401-0.696-0.298c-0.501,0.109-1.606,1.184-1.945,0.501c-0.044,0.359-0.383,0.432-0.671,0.239
			c-0.339-0.227,0.059-0.637-0.003-0.681c-0.17-0.118-1.411,0.436-1.065-0.461c0.048-0.129,1.606-1.124,1.816-1.173
			c0.781-0.186,0.954,0.687,1.651,0.54c0.703-0.153,1.256,0.02,1.927-0.24c0.438-0.167,1.301-0.608,1.326-1.14
			c0.012-0.304,0.063-0.582,0.405-0.649c0.442-0.086,1.507,0.153,1.573-0.588c0.044-0.477,0.527-0.361,0.855-0.643
			c0.361-0.313,0.317-0.571,0.549-1.081c-0.044-0.571,1.16-1.509,0.969-1.724c-0.387-0.442-1.415,0.886-1.75,0.973
			c-0.649,0.167-0.324-0.058-0.217-0.632c0.078-0.405,0.269-0.442,0.018-0.995c-0.129-0.287-0.453-0.731-0.637-1.01
			c-0.369-0.557-0.811,0.011-0.84,0c-0.593-0.17-0.674-1.708-1.382-1.764c-0.641-0.055,0.044,1.527-0.958,0.339
			c-0.6-0.715-0.987-1.564-0.681-2.508c0.309-0.965,1.794-0.547,2.118-1.138c0.11-0.205-0.63-1.42-0.221-1.779
			c0.03-0.024,1.201-0.018,1.256,0.006c0.343,0.155,0.402,0.7,0.638,0.814c0.634,0.309,1.382-0.333,2.063-0.142
			c0.402,0.114,1.691,0.915,1.827,1.359c0.103,0.317,0.099,0.582,0.298,0.875c0.206,0.308,0.649,0.379,0.825,0.639
			c0.122,0.18,0.277,0.674,0.133,0.91c-0.254,0.431-0.471,0.042-0.781,0.322c-0.015,0.011,0.155,0.448,0.103,0.542
			c-0.099,0.193-0.369,0.063-0.508,0.219c-0.177,0.197-0.413,0.785-0.751,0.82c-0.52,0.055,0.232-1.636-0.796-1.087
			c-0.358,0.191-0.28,0.787-0.247,1.105c0.04,0.44-0.317,0.376,0.276,0.597c0.711,0.263,1.599-0.514,2.144-0.762
			c0.387-0.179,0.715-0.217,1.031-0.542c0.144-0.144-0.206-0.228-0.191-0.356c0.029-0.287,0.291-0.11,0.42-0.232
			c0.582-0.536,1.547-0.384,1.878-1.266c0.295-0.786-0.39-1.605-0.906-2.203c-1.245-1.453-2.339-2.879-3.883-4.104
			c-0.619-0.496-1.297-0.921-1.827-1.503c-0.24-0.258-0.324-0.519-0.619-0.715c-0.523-0.354-1.278-0.315-1.842-0.573
			c-0.747-0.343-1.455-0.798-2.17-1.196c-0.482-0.912-0.958-1.84-1.485-2.724c-0.468-0.785-0.707-1.942-1.307-2.592
			c-0.933-1.009-2.48-1.256-3.231-2.352c-0.659-0.958-0.718-1.639-1.86-1.994c-0.516-0.159-1.344-0.354-1.584-0.923
			c-0.365-0.864-0.788-1.704-1.22-2.536c-0.552-1.068-0.195-1.337,0.03-2.433c0.221-1.087,0.011-2.203,0.36-3.314
			c0.14-0.444,0.958-1.916-0.014-1.985c-0.719-0.052-1.028-1.227-1.275-1.761c-0.162-0.352-0.766-0.592,0.066-0.794
			c0.465-0.11,1.087,0.083,1.024-0.635c0.067-0.057,0.14-0.037,0.177-0.107c-0.73-0.243-0.265-0.779,0.24-1.05
			c0.597,0.895,0.777,0.07,1.311-0.048c-0.085-0.101-0.258-0.282-0.255-0.427c0.052-1.179,0.523-0.713,1.4-1.208
			c0.848-0.475,0.461-1.17,0.615-1.831c0.133-0.58,0.832-0.603,1.555-0.372c0.63,0.201,0.243,0.882,0.471,1.243
			c0.188,0.297,0.66,0.275,0.84,0.597c1.002,1.781-2.84,1.684-3.035,2.299c-0.136,0.424,0.935,0.889,1.182,1.189
			c0.335,0.409,1.201,1.265,1.017,1.794c1.444-0.8,2.111,0.606,3.301,1.099c0.494,0.245,1.201,0.288,1.739,0.334
			c0.564,0.048,1.194,0.435,1.787,0.529c1.175,0.19,2.899,0.072,3.389,1.481c0.155,0.449,0.309,1.254,0.335,1.7
			c0.018,0.337-0.14,0.74-0.037,1.057c0.177,0.525,0.361,0.282,0.678,0.602c0.965,0.98,1.422,1.687,1.157,3.022
			c0.343-0.193,0.737-0.085,1.076-0.227c0.35-0.149,0.508-0.455,0.899-0.532c1.392-0.277,2.881,0.998,4.358,0.755
			c0.272-0.046,2.413-0.262,2.081-0.788c-0.103-0.168-0.909,0.075-1.204-0.094c-0.28-0.16-0.357-0.746-0.586-0.911
			c-0.895-0.656-2.873-0.354-3.949-0.75c-0.674-0.247-1.12-0.814-1.562-1.334c-0.266-0.308-0.475-0.643-0.796-0.903
			c-0.384-0.309-0.707-0.193-1.002-0.357c-0.376-0.208-1.197-1.168-1.322-1.621c-0.217-0.785,0.781-2.26,1.459-2.417
			c0.413-0.094,1.481,0.166,1.923,0.256c0.895,0.19,1.403,0.267,2.328,0.173c1.721-0.182,2.384,1.107,3.463,2.146
			c0.597,0.571,0.969,0.853,1.374,1.51c0.343,0.551,0.546,1.146,1.076,1.639c0.24-0.559,0.895-0.14,1.219,0.102
			c0.431,0.313,0.762,0.985,1.209,0.593c-0.405,1.144,1.061,0.323,1.407,0.179c-0.151-0.033-0.346-0.175-0.471-0.214
			c0.623-0.202,0.424-0.619,0.483-1.125c0.011-0.101,0.28-0.155,0.273-0.383c-0.011-0.422-0.254-0.402-0.384-0.634
			c-0.014-0.024-0.305-0.014-0.416-0.27c-0.025-0.061,0.328-0.295,0.251-0.516c-0.1-0.274-0.534-0.199-0.623-0.411
			c-0.077-0.184,0.022-0.589-0.004-0.646c-0.483-1.072-2.387-1.254-3.585-1.483c-0.828-0.16-1.249,0.044-1.886-0.615
			c-0.494-0.51-1.23-0.628-1.577-1.304c-0.449-0.871-0.217-2.009,0.578-2.358c0.465-0.202,0.523,0.028,0.999-0.337
			c0.302-0.236,0.438-0.584,0.851-0.715c1.643-0.528,2.571,0.512,4.049,1.028c0.946,0.329,1.636,0.026,2.575,0.024
			c0.903-0.002,1.138,0.503,1.71,1.111c0.589,0.632,0.803,0.943,1.543,1.335c0.59,0.311,1.135,1.413,1.632,1.439
			c0.505,0.026,1.816-1,1.61-1.468c-0.442-1.008-1.901-1.446-2.719-2.067c-0.552-0.413-1.134-1.472-1.838-1.571
			c-0.394-0.059-0.748,0.252-0.888-0.293c-0.099-0.385-0.586-0.422-0.925-0.405c-0.906,0.044-1.702,0.147-2.332-0.563
			c-0.247-0.282-1.33-1.885-1.61-1.279c-0.272,0.593,0.973,1.035,0.483,1.684c-0.45,0.593-1.839,0.221-2.395,0.106
			c-1.149-0.228-2.855-2.529-1.489-3.264c0.656-0.355,2.019-0.552,0.321-1.015c-1.043-0.288-2.045-0.089-2.523-1.383h0.003
			c-0.254-0.319-0.715-0.58-1.039-0.827c-0.247-0.186-0.807-0.064-1.013-0.266c-0.619-0.599,0.129-1.908,0.361-2.47
			c1.215-0.707,1.731-1.414,3.19-1.221c1.204,0.95,3.912,1.19,5.073,0.177c1.333-1.163,2.741-2.399,3.968-3.71
			c-0.328,0.089-0.929-0.063-0.497-0.488c0.53-0.521-0.144-0.339-0.089-0.842c0.048-0.412,0.608-0.632,0.792-0.919
			c0.195-0.302,0.254-0.757,0.486-0.996c0.483-0.497,1.934-0.974,2.656-1.068c0.811-0.11,0.659-0.009,1.172,0.507
			c0.268,0.277,0.582,0.216,0.563,0.608c-0.089-0.046-0.188-0.114-0.28-0.149c0.251,0.188,0.74,0.794,0.991,0.889
			c0.556,0.208,0.471-0.234,1.024-0.247c0.582-0.013,0.604,0.369,1.183,0.376c0.844,0.011,1.635-0.542,2.181-1.095
			c0.393-0.571,0.626-1.304,1.237-1.689c0.836-0.531,1.399-0.507,1.816-1.348c0.078-0.153-0.191-0.185-0.025-0.389
			c0.11-0.129,0.35-0.266,0.413-0.42c0.047-0.121,0.029-0.7,0.01-0.678c0.339-0.431,2.004-0.935,2.531-0.693
			c0.814,0.527-1.37,1.559,1.054,1.409c0.818-0.048,1.555-0.121,2.29-0.344c0.311-0.094,0.413-0.322,0.848-0.248
			c0.465,0.081,0.663,0.479,1.068,0.628c0.685,0.26,1.665,0.099,2.38,0.195c0.479,0.063,1.031,0.283,1.515,0.245
			c0.637-0.053,1.263-0.337,1.933-0.39c1.61,0.079,2.954-0.3,4.516-0.505c1.208-0.159,2.263-0.805,3.405,0.043
			c-0.027-0.111-0.015-0.295-0.048-0.407c0.154,0.046,1.123-0.288,1.196-0.111c0.137,0.315-0.706,0.63-0.902,0.639
			c0.564,0.56,0.755,1.129,1.183,1.866C133.407,28.697,133.093,27.786,133.543,26.657L133.543,26.657z M105.085,38.844
			c-0.873,0.4-1.801,1.708-2.715,0.73c-0.696-0.75-1.289-0.142-1.963-0.562c-1.135-0.705,0.015-3.168,0.357-3.811
			c0.284-0.534,0.803-1.252,1.459-1.317c0.129-0.013,0.847,0.09,1.021,0.113c0.593,0.077,0.383,0.118,0.929,0.427
			c0.209,0.12,0.916,0.147,1.005,0.363c0.1,0.238-0.408,0.44-0.172,0.965c0.055,0.127,0.371-0.033,0.471,0.23
			c0.099,0.256-0.082,0.328-0.063,0.463c0.055,0.385,0.018,0.65,0.195,1.125c0.085,0.221,0.339,0.564,0.239,0.825
			C105.822,38.462,105.243,38.462,105.085,38.844L105.085,38.844L105.085,38.844z M121.209,38.884
			c0.884-1.227,1.902-1.687,3.364-1.509c0.869,0.105,2.369,0.735,1.786,1.871c-0.36,0.701-2.048,1.265-2.714,1.159
			c-0.804-0.131-2.194-0.748-2.72-1.394C121.01,38.961,121.109,38.917,121.209,38.884L121.209,38.884L121.209,38.884z
			 M123.375,58.512c-0.781-0.099-1.132-0.136-1.706-0.562c-0.367-0.27-0.699-0.842-1.163-0.781c0.367-0.335,0.814-1.232,0.104-1.581
			c-0.642-0.311-0.9,0.437-1.22,0.84c0.177-0.013,0.324,0.076,0.46,0.081c-1.242,0.586-0.192,1.66,0.564,2.058
			c-0.402,0.368-1.504,0.62-1.717,0.127c-0.181-0.414,0.571-0.953,0.048-1.109c-0.111-0.033-0.291,0.457-0.432,0.501
			c-0.154,0.048-0.387-0.116-0.615-0.065c-0.376,0.09-0.906,0.379-1.238,0.481c0.1-0.149-0.044-1.527-0.089-1.798
			c-0.099-0.547-0.647-1.51-0.99-2.038c-0.388-0.609,2.707-1.171,3.054-1.272c0.319-0.093,0.755-0.243,1.056-0.225
			c0.429,0.026,0.572,0.146,0.818,0.392c0.17,0.164,0.405,0.915,0.611,0.89c0.151-0.018,0.528-0.757,0.605-0.888
			c0,0.002,0.365-0.149,0.416-0.221c-0.125,0.175,0.045-0.479,0.045-0.473c0.029-0.118,0.195-0.816,0.239-0.852
			c0.199-0.164,0.379,0.174,0.523,0.09c0.171-0.099,0.303-0.344,0.453-0.42c0.254-0.129,0.409-0.355,0.652-0.435
			c-0.398,0.477,0.078,0.49,0.048,0.963c-0.046,0.538-0.214,0.613-0.536,1.133c-0.324,0.525-0.058,0.805-0.208,1.236
			c-0.086,0.245-1.069,0.582-0.343,0.907c-0.351,0.256-0.27,0.464-0.299,0.753c0.012-0.118,0.192,0.687,0.195,0.695
			c0.199,0.291,0.666,0.283,0.798,0.632C123.649,57.924,123.059,58.035,123.375,58.512L123.375,58.512L123.375,58.512z
			 M206.295,149.917c-0.284,1.172-0.741,3.073-1.937,3.707c-0.612,0.327-1.696-0.022-2.035-0.649
			c-0.608-1.135,0.486-3.039-0.243-4.245c-0.294-0.492-0.998-0.575-1.429-0.928c0.019,0.015-0.789-1.039-0.77-0.758
			c-0.022-0.346,1.44-1.396,1.585-1.712c0.275-0.613-0.027-1.447,0.21-2.147c0.092-0.28,0.633-0.506,0.836-0.779
			c0.265-0.351,0.233-0.658,0.401-1.026c0.365-0.789,1.028-1.141,1.687-1.646c0.626-0.483,1.076-1.102,1.651-1.634
			c0.545-0.507,1.087-1.159,1.845-1.342c0.409-0.098,0.732,0.054,1.069-0.264c0.324-0.303,0.106-1.203,0.644-1.1
			c0.531,0.101,0.291,0.696,0.369,0.964c0.08,0.283,0.53,0.824,0.542,0.951c0.04,0.445-0.439,0.61-0.486,1.008
			c-0.022,0.224,0.258,0.422,0.246,0.556c-0.019,0.241-0.118,0.34-0.162,0.57c-0.172,0.843-0.243,1.583-0.334,2.357
			c-0.048,0.379-0.247,0.624-0.159,1.051c0.144,0.696-0.111,0.307-0.446,0.735c-0.267,0.345-0.942,1.612-0.61,2.182
			c0.187,0.325,0.573,0.231,0.758,0.569c0.199,0.367-0.277,0.629,0.243,0.997c-0.98,0.095-1.34-0.331-2.124,0.423
			C206.95,148.425,206.578,148.919,206.295,149.917L206.295,149.917L206.295,149.917z M200.599,135.715
			c-0.268-0.429-0.018-0.54-0.597-0.783c-0.195-0.082-1.153,0.497-0.603-0.329c-0.281,0.028-0.576,0.139-0.856,0.267
			c-0.203-0.53,0.73-2.482,1.466-2.695c0.745-0.213-0.67,1.074-0.589,1.245c0.294,0.618,1.448-0.98,1.123-0.047
			c0.329,0.051,0.516,0.883,0.572,1.208C201.184,135.005,201.203,135.443,200.599,135.715L200.599,135.715L200.599,135.715z
			 M179.944,136.713c-0.893,0.053-1.665-0.877-1.635-1.697c0.045-1.142,0.795-0.622,1.495-1.247c0.46-0.41,0.372-1.362,0.765-1.872
			c0.472-0.604,1.102-1.108,1.618-1.674c0.583-0.63,1.021-0.678,1.739-1.05c0.294-0.153,0.656-0.657,0.94-0.731
			c0.478-0.127,0.563,0.237,1.083,0.35c0.423,0.092,0.722-0.323,1.06,0.059c0.354,0.397,0.119,0.624-0.168,0.948
			c-0.524,0.586-1.647,0.857-2.302,1.316c-0.782,0.548-0.936,1.13-1.457,1.866c-0.651,0.918-1.127,0.425-2.092,0.638
			c-0.748,0.17-1.307,0.947-1.4,1.464c0,0.007,0.254,0.187,0.258,0.285c0.012,0.121-0.258,0.276-0.236,0.503
			C179.649,136.174,179.764,136.471,179.944,136.713L179.944,136.713L179.944,136.713z M151.749,75.981
			c-0.748-0.101-1.331-0.043-2.066-0.015c-0.542,0.018-1.212-0.378-1.765-0.479c-0.689-0.129-1.142,0.26-1.741,0.298
			c-0.42,0.024-1.928-0.705-2.145-1.154c-0.272-0.556,0.166-0.426,0.486-0.616c0.568-0.339,0.498-0.368,0.841-0.853
			c0.369-0.525,3.61-2.912,1.262-3.041c-0.466-0.026-1.665,0.375-1.908,0.814c-0.158,0.284-0.109,0.851-0.225,1.175
			c-0.121,0.346-0.261,0.86-0.401,1.175c-0.21,0.453-0.511,0.877-0.95,1.006c-0.49,0.142-1.201-0.138-1.753-0.043
			c-1.013,0.183-3.224-0.576-3.788-1.439c0.477-0.223-0.009-1.269,0.067-1.722c0.122-0.685,0.597-1.177,1.12-1.647
			c0.346,1.072,3.051-0.879,3.569-1.212c0.55-0.356,1.515-0.77,1.537-1.45c0.015-0.451-0.426-0.567-0.132-1.022
			c0.121-0.193,0.987-0.418,1.205-0.477c0.582-0.151,1.205-0.101,1.794-0.25c0.346-0.087,0.523-0.525,0.928-0.199
			c0.213,0.175-0.331,1.024,0.457,0.812c1.182-0.317,0.954,0.256,0.725,0.991c-0.121,0.381-0.265,0.797,0.048,1.096
			c0.132,0.127,0.398,0.096,0.549,0.166c0.059,0.026,0.523,0.222,0.549,0.23c0.405,0.103,0.775,0.046,1.127,0.291
			c0.277,0.192,0.438,0.775,0.763,0.985c0.284,0.185,0.476,0.21,0.825,0.254c0.004,0,0.391,0.709,0.483,0.822
			c0.478,0.608,0.777,1.078,1.429,1.57c0.369,0.276,1.421,1.013,0.872,1.59c-0.048,0.049-1.097,0.19-1.141,0.182
			c-0.425-0.055-0.664-0.164-0.888-0.551c-0.333-0.578-0.144-1.489-1.05-1.779c-0.948-0.304-1.415,0.621-0.605,1.17
			c0.59,0.398,1.261,0.585,1.824,1.107C155.146,75.167,152.799,75.257,151.749,75.981L151.749,75.981L151.749,75.981z
			 M148.411,100.714c-0.913-0.192-1.694-0.529-2.428-0.908c-0.343-0.175-0.172-0.709-0.658-0.438
			c-0.223,0.125-0.178-0.549-0.542-0.481c-1.095,0.199,0.453-1.522,0.575-1.606c0.585-0.405,0.924-0.435,0.957-1.435
			c0.011-0.416,0.204-1.12-0.106-1.497c-0.244-0.297-0.741-0.105-0.844-0.573c-0.284-1.238-0.659-1.149-1.684-1.433
			c-1.355-0.372-2.992-2.35-1.046-3.194c0.339-0.147,0.741-0.088,1.089-0.217c0.458-0.171,0.818-0.497,1.275-0.683
			c0.188-0.079,1.445-0.087,1.514-0.048c0.258,0.133,0.28,0.536,0.512,0.719c0.273,0.216,0.502-0.072,0.756,0.297
			c0.065-0.258,0.154-0.252,0.117-0.494c0.73-0.645,0.94,0.308,1.007,0.822c0.021,0.179,0.199,0.505,0.168,0.665
			c-0.048,0.238-0.515,0.591-0.515,0.663c0,0.138,0.365,0.291,0.46,0.42c0.092,0.135,0.353-0.11,0.434,0.16
			c0.059,0.182-0.163,0.374-0.154,0.551c0.04,0.796,0.217,1.282,0.549,2.043c0.195,0.446,0.829,1.14,0.714,1.645
			c-0.163,0.713-1.09,0.687-0.921,1.665c0.081,0.44,0.45,0.45,0.358,0.878c-0.107,0.488-0.542,0.477-0.867,0.748
			C148.396,99.598,148.869,100.047,148.411,100.714L148.411,100.714L148.411,100.714z M169.684,110.642
			c-1.148,0.14-1.561-1.325-2.809-1.343c-0.95-0.014-1.388,1.039-2.106,1.284c-0.696,0.234-1.164-0.86-1.099-1.46
			c0.1-0.934,1.135-0.787,1.359-1.614c0.292-1.077,2.605-1.564,3.584-1.608c0.821-0.035,1.548,0.324,2.376,0.466
			c0.324,0.057,0.841,0.291,1.139,0.263c0.339-0.029-0.56-0.547-0.542-0.73c0.066-0.597,1.006-0.181,1.175-0.187
			c0.097-0.006,1.422-0.262,1.352-0.315c0.199,0.156-0.626,0.661-0.265,1.134c0.28,0.37,1.082,0.129,0.648,0.794
			c-0.224,0.344-0.894,0.3-1.227,0.457c-0.511,0.239-1.096,0.578-1.554,0.952c-0.516,0.424-0.374,1.12-0.777,1.498
			C170.682,110.473,170.012,110.474,169.684,110.642L169.684,110.642L169.684,110.642z M178.238,129.636
			c0.163-0.483,0.195-0.486,0.523-0.708c0.166-0.112,0.697-0.088,0.799-0.223c0.287-0.376-0.175-0.091-0.187-0.376
			c-0.004-0.354-0.18-2.081-0.94-1.042c-0.195-0.497-0.446-0.145-0.701-0.456c-0.334-0.407,0.045-0.383-0.308-0.644
			c-0.634-0.47-1.772,0.125-2.258-0.463c-0.055,0.43,0.644,0.736,0.877,1.069c0.199,0.278,1.135-0.599,0.762,0.634
			C176.407,128.747,176.621,129.953,178.238,129.636L178.238,129.636L178.238,129.636z M192.974,171.431
			c0.161-0.284,0.332-0.59,0.391-0.884c-1.114,0.338,0.677-1.67,0.732-1.736c0.055-0.066,0.737-0.236,0.424-0.774
			c-0.199-0.35-0.535-0.062-0.737-0.232c-0.563-0.486,0.004-0.31-0.159-0.955c-0.088-0.346-0.685-0.652-0.921-0.832
			c-0.648-0.511-1.282-0.608-1.152-1.632c0.095-0.755,0.698-1.579,0.717-2.328c0.019-0.755-0.45-1.175-0.374-2.026
			c0.092-1.127-0.045-1.212-0.697-0.331c-0.376,0.505-0.692,0.22-0.49,1.097c0.155,0.675,0.268,1.23,0.144,1.893
			c-0.144,0.752-0.14,1.761-0.406,2.428c-0.102,0.254-0.589,0.486-0.604,0.822c-0.033,0.622,0.652,0.825,0.951,1.156
			c0.435,0.486,0.873,1.422,0.828,2.203c-0.018,0.294-0.243,0.891-0.047,1.068C192.112,170.859,192.68,170.583,192.974,171.431
			L192.974,171.431L192.974,171.431z M112.741,90.917c-0.693-1.227,1.212-0.551,1.436-0.577c0.663-0.066,1.15-0.527,0.642-1.269
			c-0.436-0.639-1.407-0.794-2.049-1.103c-0.6-0.293-0.453-0.063-0.677-0.704c-0.082-0.227-0.074-0.846-0.192-0.995
			c-0.177-0.223-1.782-0.982-2.045-0.985c-1.344-0.029-0.405,1.234-0.394,1.764c0.03,1.102-0.854,0.866,0.439,1.204
			c0.323,0.089,0.552,0.288,0.916,0.369c0.328,0.074,0.762-0.022,1.058,0.136c0.667,0.358,0.272,0.763,0.246,1.123
			c-0.007,0.133-0.25,0.16-0.217,0.387C111.945,90.525,112.542,90.779,112.741,90.917L112.741,90.917L112.741,90.917z
			 M152.04,118.823c0.777-0.42,1.558-0.491,2.085-1.121c0.523-0.63,0.767-0.945,1.591-1.211c0.741-0.237,1.036-0.357,1.548-0.972
			c0.511-0.619,1.024-1.206,1.359-1.932c0.173-0.376,1.006-2.197,0.073-1.547c-0.902,0.631-2.103,1.965-3.146,2.282
			c-0.67,0.202-1.598,0.035-2.216,0.413C152.474,115.252,151.307,118.016,152.04,118.823L152.04,118.823L152.04,118.823z
			 M92.439,86.139c0.375-0.28,0.847-0.637,0.972-1.119c0.225-0.857-0.085-0.439-0.674-0.546c-0.243-0.044-0.273,0.113-0.568,0.015
			c0.011,0.002-0.402-0.4-0.538-0.47c-0.42-0.217-0.972-0.201-1.437-0.442c-0.184-0.096-1.164-0.938-1.348-0.606
			c-0.129,0.231,0.608,0.969,0.766,1.157c0.361,0.431,0.788,1.105,1.175,1.424C91.241,85.925,91.768,85.93,92.439,86.139
			L92.439,86.139L92.439,86.139z M116.248,113.843c0.747-0.355,1.259-1.571,1.333-2.365c0.089-1.006-0.49-1.987-0.692-2.92
			c-0.177-0.807,0.276-0.609-0.475-0.409c-0.446,0.118-0.948,0.249-1.419,0.369c-0.542,0.138-0.968,0.435-1.598,0.32
			c-0.21-0.04-0.685-0.329-0.807-0.329c-0.246,0-0.423,0.289-0.64,0.294c-0.236,0.006-0.457,0.12-0.7,0.024
			c-0.229-0.09-0.022-0.51-0.159-0.58c-0.221-0.11-0.741-0.135-1.038-0.234c-1.031-0.348-1.061-0.698-1.242-1.602
			c-0.099-0.503-0.258-0.772-0.542-1.137c-0.184-0.234-0.578-0.433-0.747-0.724c-0.184-0.32-0.085-0.707-0.339-1.076
			c-0.243-0.357-0.456-0.514-0.625-0.832c0.081,0.149,0.062-0.429,0.059-0.435c-0.012-0.052-0.336-0.265-0.391-0.401
			c-0.095-0.24-0.099-0.929-0.11-1.21c-0.018-0.328,0.159-0.557,0.247-0.849c0.199-0.652,0.45-0.256,0.022-0.761
			c-0.608-0.711-4.074-1.483-2.059-2.98c-1.05-0.563-2.848-0.527-3.776-0.083c-0.305,0.145-0.523,0.543-0.873,0.639
			c-0.335,0.093-0.84-0.177-1.194-0.141c-0.42,0.04-0.63,0.162-1.039,0.125c-0.394-0.035-0.759-0.258-1.138-0.323
			c-0.88-0.147-0.995-0.17-1.636-0.827c-0.843-0.862-0.991-0.191-2.026-0.121c-0.214,0.013-1.013-0.09-1.083-0.026
			c-0.181,0.155-0.545-0.341-0.66-0.405c-0.637-0.35-1.396-0.532-2.059-0.897c-0.726-0.396-1.204-0.777-1.613-1.479
			c-0.214-0.37-0.247-0.908-0.446-1.234c-0.298-0.482-0.45-0.245-0.91-0.505c-0.556-0.313-0.295-0.643-0.6-0.991
			c-0.177-0.201-0.332-0.136-0.553-0.266c-0.774-0.444-1.234-0.571-1.997-0.188c-0.556,0.277-1.172,1.153-1.79,1.127
			c-0.667-0.028-1.245,0.273-1.559,0.851c-0.155,0.287-0.018,0.872-0.199,1.144c-0.239,0.359-0.512,0.138-0.799,0.383
			c-0.247,0.212-0.35,0.615-0.659,0.877c-0.265,0.221-0.568,0.405-0.869,0.578c-0.733,0.418-1.352,0.884-1.945,1.378
			c-0.35,0.293-0.549,0.25-0.645,0.747c-0.11,0.597,0.004,0.4,0.358,0.402c0.523,0.002,1.982-0.442,2.442-0.735
			c1.396-0.882-0.439-0.904-0.258-1.28c0.251-0.52,1.691,0.156,1.92,0.34c0.925,0.743,1.311-0.04,2.122-0.208
			c0.947-0.193,1.702,0.65,2.435,1.039c0.807,0.429,1.823,0.356,2.401,1.122c0.424,0.566,1.585,1.098,2.24,1.177
			c0.494,0.057,0.512,0.461,0.818,0.692c0.262,0.199,0.626,0.252,0.891,0.466c0.781,0.634,0.604,1.217,1.721,1.326
			c0.869,0.083,1.127,0.089,1.835,0.667c0.416,0.339,0.652,1.148,0.516,1.597c-0.107,0.359-0.531,0.491-0.553,0.799
			c-0.037,0.512,0.317,0.199,0.671,0.451c0.828,0.589,0.475,0.858,1.521,0.635c0.741-0.156,1.319,0.091,2.078,0.07
			c0.81-0.022,1.017-0.492,1.838-0.484c0.807,0.007,1.474,0.16,2.269-0.217c0.475-0.227,1.75-0.923,2.114-0.284
			c0.358,0.623,0.659,1.254-0.133,1.599c0.472,0.112,1.319-0.251,1.694,0.057c0.542,0.437-0.114,1.273,0.458,1.571
			c0.25,0.129,1.013-1.319,0.972-0.375c-0.022,0.473-0.95,1.567-0.099,1.52c0.438-0.024-0.022-0.643,0.722-0.348
			c0.258,0.103,0.729,0.709,0.876,0.969c0.321,0.568,0.067,0.49,0.092,1.031c0.011,0.227-0.132,0.286-0.062,0.516
			c0.015,0.06,0.379-0.07,0.416,0.003c0.14,0.289,0.117,0.746,0.386,0.877c0.28,0.138,0.642-0.271,0.926-0.232
			c0.438,0.055,1.252,0.237,1.466,0.562c0.471,0.704,0.102,0.969,0.828,1.612c0.317,0.282,1.153,1.219,1.533,0.379
			c0.159-0.352-0.821-1.057,0.513-1.133C115.377,112.489,115.201,113.976,116.248,113.843L116.248,113.843L116.248,113.843z
			 M128.05,119.117c-0.107-0.626,0.185-1.228,0.263-1.912c0.085-0.704-0.048-0.259-0.361-0.543
			c-0.104-0.095-0.294,0.304-0.475,0.108c-0.131-0.138,0.139-0.405,0.128-0.532c-0.029-0.365,0.175-0.644-0.078-0.987
			c-0.158-0.212-0.681-0.205-0.803-0.566c-0.232-0.7,0.604-1.383-0.585-1.509c-0.59-0.063-1.282,0.466-1.902,0.177
			c-0.81-0.379-0.431-1.411-1.412-1.437c-0.585-0.017-0.205-0.613-0.585-0.696c-0.195-0.043-0.832,0.407-0.973,0.516
			c-0.71,0.542-0.954,0.976-0.649,1.801c0.141,0.379,0.425,0.722,0.576,1.102c0.284,0.726,0.336-0.074,0.767,0.04
			c0.95,0.251,1.097,0.997,1.757,1.503c0.102,0.079,0.39-0.184,0.585-0.005c0.122,0.11,0.119,0.3,0.226,0.423
			c0.338,0.401,0.945,0.392,1.347,0.68C126.676,117.853,127.137,118.575,128.05,119.117L128.05,119.117L128.05,119.117z
			 M134.431,122.339c0.557-0.178,0.848-1.196,0.848-1.76c0-0.758-0.593-1.093-1.242-1.23c-0.317-0.066-0.585-0.112-0.895-0.036
			c-0.217,0.059-0.542,0.303-0.615,0.306c-0.195,0.004-0.661-0.218-0.966-0.221c-0.317-0.005-0.46,0.114-0.822,0.074
			c-0.334-0.041-0.044-0.565-0.523-0.545c-0.294,0.014-0.696,0.099-0.98,0.187c-0.734,0.225-0.877,0.446-0.174,1.029
			c0.633,0.529,1.53,0.823,2.244,1.281C132.188,121.979,133.371,122.399,134.431,122.339L134.431,122.339L134.431,122.339z
			 M138.657,124.919c0.423-0.291,2.276-1.537,2.041-2.076c-0.097-0.223-1.128-0.492-1.414-0.477
			c-0.678,0.038-0.372,0.895-0.834,0.716c-0.426-0.167-0.025-0.796-0.677-0.666c-0.298,0.061-0.917,0.798-0.41,0.978
			c0.675,0.239,0.162,0.875,0.162,0.888C137.577,125.066,137.76,124.634,138.657,124.919L138.657,124.919L138.657,124.919z
			 M144.009,138.14c0.423-0.497,0.872-0.884,1.404-1.329c0.331-0.28,0.722-0.045,0.681-0.629c-0.018-0.23-0.011-0.449,0.008-0.677
			c0.092-1.292,0.125-2.427-0.048-3.604c-0.111-0.759-0.817-1.427-1.436-1.716c-0.546-0.258-0.32-0.387-0.947-0.033
			c-0.369,0.214-0.445,0.248-0.671,0.649c-0.187,0.33-0.107,0.618-0.379,0.941c-0.254,0.299-0.63,0.403-0.888,0.699
			c-0.254,0.297-0.327,0.835-0.575,1.128c-0.074,0.088-0.026,0.286-0.092,0.384c-0.092,0.134-0.427-0.165-0.46-0.033
			c-0.06,0.245,1.366,2.803,1.797,2.846C143.416,136.867,143.033,138.143,144.009,138.14L144.009,138.14L144.009,138.14z
			 M128.377,128.535c0.394-0.286,0.829-0.596,1.168-0.935c0.48-0.48,0.502-0.432,0.218-1.016c-0.099-0.203-0.467-0.199-0.502-0.267
			c-0.099-0.195,0.167-0.45,0.111-0.672c-0.099-0.417-0.31-0.98-0.717-1.195c-1.493-0.795-0.373,0.996-0.542,1.665
			c-0.1,0.399-0.453,0.815-0.398,1.203C127.804,127.952,128.349,127.618,128.377,128.535L128.377,128.535L128.377,128.535z
			 M137.753,137.932c0.313-0.696,0.888-1.084,1.157-1.751c0.4-0.997-0.141-1.084-0.247-1.858c-0.044-0.31,0.648-2.264-0.237-1.744
			c-0.235,0.138,0.012,0.764-0.533,0.915c-0.519,0.14-0.4-0.313-0.336-0.698c-0.426,0.425-1.039,0.762-1.436,1.212
			c-0.192,0.217-0.332,0.572-0.379,0.841c-0.012,0.055,0.394-0.032,0.328,0.243c-0.041,0.159-0.254,0.244-0.294,0.389
			c-0.159,0.542-0.638,1.049-0.314,1.674C135.838,137.881,137.127,137.839,137.753,137.932L137.753,137.932L137.753,137.932z
			 M113.956,126.943c0.659-0.197,0.582-0.761,0.869-1.24c0.291-0.49,0.663-0.788,0.869-1.36c0.431-1.199,0.317-2.191-0.995-2.044
			c-0.202,0.022-0.394-0.15-0.637,0.059c-0.159,0.137-0.037,0.418,0.025,0.352c-0.35,0.379-0.552,0.439-0.751,1.031
			c-0.217,0.652-0.063,1.031,0.08,1.586C113.54,125.794,113.54,126.62,113.956,126.943L113.956,126.943L113.956,126.943z
			 M11.951,92.094c0.186-0.23-0.669-1.904-1.031-2.137c-0.567-0.358-0.191,0.095-0.751,0.298c-0.674,0.248-0.497-0.101-1.019-0.308
			c-0.928-0.369-1.46,0.061-1.871-1.05c-0.263-0.709-0.588-1.579-0.611-2.332c-0.007-0.188-0.19-0.3-0.181-0.462
			c-0.002,0.028,0.41,0.155,0.409-0.089c-0.006-0.569-0.3-0.532-0.685-0.713c-0.366-0.171-0.781-0.125-1.098-0.376
			c-0.195-0.155-0.03-0.25-0.067-0.298c0.078,0.107-0.234-0.37-0.204-0.268c-0.297-1.022-0.039-1.025,0.836-1.59
			c0.543-0.35,1.538-1.17,0.868-1.962c-0.182-0.217-0.796-0.12-1.083-0.243c-0.298-0.127-0.676-0.501-1.03-0.49
			c-0.411,0.011-0.558,0.471-0.885,0.692c-0.369,0.249-0.551,0.28-1.01,0.367c-0.761,0.145-1.66,0.046-2.15,0.597
			c-0.818,0.923-0.12,1.037,0.103,1.932c0.783-0.757,0.405,0.548,0.521,0.775c0.277,0.531,1.033,0.135,1.209,0.625
			c0.425,1.195,1.668,1.133,2.439,1.954c0.486,0.521,0.527,0.685,0.722,1.269c0.113,0.332,0.225,0.928,0.44,1.219
			c0.118,0.155,0.289,0.523,0.429,0.628c0.331,0.258,0.241,0.032,0.499,0.166c0.234,0.123,1.336,0.42,0.374,0.503
			c0.531,0.267,1.311,0.295,1.905,0.523C9.97,91.696,10.962,91.871,11.951,92.094L11.951,92.094L11.951,92.094z M117.772,127.706
			c-0.15-0.624-0.788,0.444-0.957,0.719c-0.258,0.426-0.498,0.842-0.232,1.269c0.854-0.568,0.685,1.361,0.619,1.737
			c-0.025,0.159-0.269,1.018-0.066,1.15c0.331,0.211,0.81-0.356,0.929-0.61c0.173-0.366,0.419-0.697,0.526-1.093
			c0.073-0.254,0.064-0.596,0.069-0.864c0.007-0.213,0.343-0.434,0.321-0.261C119.113,128.741,117.537,129.011,117.772,127.706
			L117.772,127.706L117.772,127.706z M93.658,117.241c-0.571-0.013-0.309,0.505-0.504,0.603c-0.273,0.137-0.704,0.065-0.995,0.125
			c0.589,0.161,0.593,0.44,0.07,0.741c0.641,0.061,1.006-0.361,1.548-0.354c-0.151,0.358-0.185,0.741-0.498,0.964
			c-0.228,0.17-0.751-0.014-1.002,0.199c-0.59,0.498-0.081,1.123,0.604,1.216c0.538,0.069,0.531,0.051,0.965-0.283
			c0.11-0.086,0.586-0.464,0.604-0.48c0.369-0.393,0.453-1.375,1.021-1.555c-0.379,0.069-0.563-0.074-0.822-0.312
			C94.177,117.669,94.771,117.408,93.658,117.241L93.658,117.241L93.658,117.241z M143.632,146.325
			c0.291-0.659,0.593-0.147,0.586-0.976c0-0.238-0.199-0.385-0.206-0.628c0-0.119,0.268-0.538,0.265-0.548
			c-0.159-0.394-0.652-0.416-1.061-0.529c-0.144-0.038-0.475-0.132-0.593-0.208c-0.221-0.138-0.276-0.26-0.42-0.37
			c-0.39-0.292-0.611-0.704-1.16-0.273c-0.379,0.299-0.331,0.918-0.199,1.316c0.184,0.572,0.036,0.327,0.553,0.658
			C142.155,145.255,142.848,145.848,143.632,146.325L143.632,146.325L143.632,146.325z M95.157,126.376
			c0.254-0.215,0.641-0.493,0.77-0.762c0.085-0.174,0.044-0.808,0.137-1.063c-0.037,0.107,0.151-0.63,0.14-0.457
			c0.011-0.166,0.332-0.191,0.155-0.473c-0.176-0.286-0.906-0.024-1.127,0.025c-0.634,0.138-2.015,0.264-1.772,1.039
			c0.137,0.444,0.578,0.394,0.855,0.661C94.774,125.787,94.177,126.251,95.157,126.376L95.157,126.376L95.157,126.376z
			 M127.365,142.356c0.583-0.725,1.168-1.472,0.476-2.221c-0.507-0.549-1.139-0.976-1.728-1.185
			c-0.172-0.061-1.259-0.49-1.112,0.013c0.088,0.305,0.67,0.608,0.824,0.891c0.147,0.273-0.092,0.199-0.058,0.46
			c0.04,0.281,0.383,0.433,0.519,0.661C126.665,141.614,126.709,141.833,127.365,142.356L127.365,142.356L127.365,142.356z
			 M147.726,154.754c1.554-1.286-0.296-4.053-2.019-3.839c-0.364,0.044-0.98,0.457-0.258,0.505c0.891,0.061,0.601-0.007,1.05,0.718
			c0.22,0.357,0.704,1.473,0.313,1.889c-0.313,0.332-0.836-0.037-1.19,0.41C146.216,154.795,147.062,154.695,147.726,154.754
			L147.726,154.754L147.726,154.754z M27.264,104.974c-0.488-0.057-0.405-0.359,0.066-0.416c-0.464-0.078-0.602,0.329-0.831,0.563
			c-0.308,0.318-0.582,0.225-0.615,0.872c-0.024,0.42-0.458,0.733-0.606,1.138c-0.125,0.335-0.11,0.788-0.169,1.145
			c-0.124,0.816-0.35,1.472-0.243,2.297c0.101,0.812-0.098,1.807,0.175,2.507c0.532-0.511,0.496-1.336,0.964-1.871
			c0.182,0.386,1.164,1.171,1.074,0.934c-0.191-0.527,0.709-0.685,1.01-0.938c0.765-0.634,0.14-0.97,0.323-1.888
			c0.164-0.821-0.339-0.467-0.427,0.07c-0.306-0.801,0.672-1.195,0.167-2.065C27.69,106.527,28.383,105.483,27.264,104.974
			L27.264,104.974L27.264,104.974z M120.27,151.379c0.566-0.376,1.359-0.526,1.985-0.799c0.677-0.291,1.307-0.301,1.949-0.652
			c0.925-0.512,0.741-0.807,0.479-1.717c-0.277-0.964-0.221-1.262-1.109-0.665c-0.32,0.212-0.6,0.57-1.009,0.551
			c-0.184-0.004-0.896-0.559-0.848-0.578c-0.474,0.188-0.033,0.844,0.192,1.01c0.365,0.265,0.685-0.078,1.013,0.232
			c0.409,0.39-0.327,0.824-0.755,0.792c-0.652-0.052-0.493-0.336-0.829-0.56c-0.029-0.019,0.045-0.263-0.055-0.343
			c-0.088-0.069-0.206,0.114-0.27,0.078c0.045,0.021-0.596-0.104-0.548-0.119c-0.337,0.115-0.465,0.033-0.476,0.568
			C119.976,149.773,119.861,150.879,120.27,151.379L120.27,151.379L120.27,151.379z M109.572,193.426
			c-0.01,0.881,1.095,0.782,1.625,1.069c0.409,0.225,0.052,0.699,0.752,0.608c0.52-0.069,1.219-0.144,1.705-0.258
			c0.608-0.14,1.326-0.346,1.967-0.516c0.906-0.243,1.344-0.682,2.445-0.597c0.469,0.034,1.007,0.137,1.471,0.119
			c0.387-0.019,0.659-0.325,1.031-0.377c1.082-0.151,1.268,0.807,2.354,0.476c0.782-0.239,1.935-0.708,2.862-0.744
			c1.007-0.044,1.802,0.618,2.822-0.107c1.333-1.197,2.527,0.192,3.986,0.022c0.608-0.074,1.226-0.062,1.764,0.253
			c0.254,0.147,0.457,0.565,0.716,0.671c1.079,0.439,2.718-0.699,3.942-0.405c0.456,0.221,0.777,0.677,0.994,1.12
			c0.32,0.656,0.236,1.23,0.338,1.898c0.041,0.235,0.052,1.037,0.093,1.127c0.081,0.188-0.301,0.092,0.038,0.309
			c0.205,0.137,0.942-0.194,1.127-0.294c0.957-0.5,1.577-0.475,2.608-0.622c1.097-0.159,2.092-0.462,3.176-0.759
			c1.19-0.329,1.912-1.017,3.064-1.272c0.553-0.125,0.888-0.291,1.416-0.551c0.49-0.244,0.639-0.652,1.008-0.856
			c2.089-1.142,4.362-0.769,6.351-2.008l0.32-0.261c1.095-0.744,3.051-0.898,4.344-1.013c1.035-0.088,1.661-0.557,2.577-1.076
			c0.619-0.353,1.235-0.666,1.928-0.865c0.737-0.21,0.98,0.32,1.765,0.188c0.503-0.086,0.949-0.181,1.454-0.147
			c0.166,0.007-0.022,0.39,0.354,0.265c1.013-0.339,1.889-1.165,2.663-1.869c0.184-0.854,0.431-1.668,0.5-2.479
			c0.04-0.486-0.273-0.777-0.247-1.223c0.026-0.509,0.704-0.504,0.552-1.09c-0.732,0.841-1.278-0.832-1.385-1.311
			c-0.177-0.771-0.132-0.431,0.221-1.095c0.192-0.353,0.383-0.626,0.372-1.043c-0.633,0.034-0.439,0.387-0.663,0.728
			c-0.122,0.175-0.796,0.591-0.907,0.769c-0.446,0.697-0.412,1.916-1.104,2.469c-0.741,0.589-2.134-0.557-2.859-0.015
			c-0.24,0.177-0.557,0.147-0.796,0.334c-0.213,0.171-0.081,0.486-0.251,0.652c-0.239,0.228-0.822,0.59-1.083,0.711
			c-0.36,0.162-0.956,0.154-1.24,0.39c-0.218,0.174-0.233,0.725-0.576,0.94c-0.658,0.413-0.434,1.651-1.435,1.597
			c-0.321-0.019-0.619-0.159-0.933-0.211c-0.668-0.114-0.332,0.132-0.784-0.287c-0.557-0.512-0.73-1.422-0.708-2.134
			c0.004-0.168,0.294-0.354,0.357-0.519c0.038-0.095-0.158-0.343-0.125-0.5c0.069-0.32,0.537-0.204,0.191-0.777
			c-0.367-0.605-0.095,0.751-0.486,0.459c-0.187-0.14-0.251-0.746-0.195-0.954c0.064-0.246,0.801-0.769,0.631-1.071
			c-0.203-0.361-1.433,0.161-1.71,0.236c-0.571,0.155-0.957,0.012-1.544,0.35c-0.836,0.483-1.676,0.969-2.508,1.452
			c-0.431,0.313-1.059,0.774-1.603,0.704c-0.619-0.081-1.238-0.811-1.668-0.785c-1.341,0.078-2.553,0.896-3.883,0.892
			c-0.704,0-1.087-0.041-1.834,0.168c-0.483,0.135-1.028,0.303-1.533,0.211c-0.538-0.097-0.535-0.372-0.781-0.73
			c-0.339-0.493,0.243-0.35-0.495-0.715c-1.004-0.5-1.193,0.21-1.922,0.412c-0.365,0.052-1.194-0.203-1.488-0.062
			c-0.354,0.163-0.553,0.493-0.991,0.601c-0.829,0.188-1.613-0.028-2.442,0.085c-1.359,0.181-1.99,1.312-3.121,1.787
			c-1.882,0.788-3.809,1.473-5.72,2.191c-0.519,0.044-1.499,0.291-1.909-0.144c-0.243-0.254-0.31-1.289-0.398-1.613
			c-0.163-0.63-0.191-1.194-0.872-0.969c-0.682,0.225-0.661,0.703-1.533,0.586c-0.645-0.082-1.399-0.476-2.099-0.446
			c-0.964,0.036-0.062-0.729,0.511-0.748c0.716-0.018,1.132,0.184,1.625-0.435c0.486-0.619,0.181-1.599-0.459-2.031
			c-0.63-0.419-1.924-0.18-2.262,0.524c-0.188,0.391,0.294,0.507,0.154,0.888c-0.022,0.059-0.442,0.048-0.52,0.147
			c-0.095,0.118,0.015,0.394-0.055,0.472c-0.986,1.079-2.387,0.913-3.819,1.155c-0.63,0.104-1.396,0.186-1.981-0.073
			c-0.745-0.32-0.896-1.203-1.195-1.956c-0.176-0.445-0.198-2.189-1.045-1.963c-0.811,0.22-0.443,2.125-0.244,2.619
			c0.272,0.675,0.811,1.09,0.749,1.923c-0.052,0.659-0.667,1.338-1.456,1.289c-0.151-0.011-0.774-0.343-0.814-0.376
			c-0.294-0.258-0.42-0.365-0.497-0.818c-0.089-0.515-0.339-1.631-0.653-2.022c0.075,0.397-0.132,0.791-0.166,1.12
			c-0.037,0.427-0.052,0.957-0.059,1.4c-0.012,0.331,0.082,0.685,0.137,0.999c0.007,0.069,0.236,0.062,0.243,0.151
			c0.015,0.195-0.147,0.387-0.129,0.55c0.077,0.897,0.313,1.466,0.003,2.512C109.403,191.828,110.534,192.687,109.572,193.426
			L109.572,193.426L109.572,193.426z M24.47,120.485c-0.23-0.214-0.508-0.049-0.693-0.27c-0.092-0.114-0.025-0.603-0.123-0.664
			c-0.461-0.279-0.604,0.741-0.873-0.044c-0.252,0.635,0.205,1.724-0.046,2.448c-0.182,0.53-0.4,0.51-0.503,1.087
			c-0.034,0.199-0.127,1.185-0.094,1.359c0.142,0.71,1.357,1.268,1.901,0.588c0.827-1.03-0.597-2.022-0.317-2.926
			c0.291-0.948,1.106,0.861,1.339,1.194c0.214,0.304,0.501,0.597,0.676,0.918c0.372,0.704-0.064,0.027-0.182,0.067
			c-0.401,0.145-0.584-0.347-0.243,0.452c0.114,0.264,0.416,0.646,0.578,0.888c0.202,0.304,0.046,0.42,0.425,0.672
			c0.048,0.032,1.105,0.267,1.137,0.258c0.254-0.085,0.464-0.564,0.792-0.735c0.483-0.251,0.437-0.205,0.982-0.084
			c0.792,0.175,1.424,1.055,2.229,1.027c0.204-0.009,0.926-0.217,1.051-0.287c0.332-0.188,0.214,0.086,0.431-0.431
			c0.32-0.757,0.005-1.275-0.52-1.787c-0.6-0.585-1.245-1.162-1.794-1.793c-0.442-0.509-0.908-1.548-1.582-1.36
			c-0.457,0.13-0.081,0.718-0.796,0.436c-0.247-0.098-0.538-0.582-0.592-0.823c-0.116-0.542,0.247-0.493,0.271-1.023
			c0.017-0.414-0.278-0.703-0.418-1.073c-0.297-0.775-0.621-1.351-1.05-2.081c-0.199-0.337-0.282-0.86-0.811-0.72
			c-0.523,0.14-0.136,0.239-0.136,0.637c0,0.461,0.162,0.897,0.173,1.334c0.004,0.173-0.063,0.663,0,0.716
			C26.34,119.068,25.308,120.708,24.47,120.485L24.47,120.485L24.47,120.485z M35.73,138.131c0.951-0.252-0.029-0.782-0.066-1.177
			c-0.037-0.42,0.531-1.212,0.827-1.374c0.473-0.258,3.004,0.613,2.416-0.173c-0.378-0.506-1.632-0.61-2.113-1.024
			c-0.346-0.298-0.245-0.757-0.552-1.1c-0.236-0.266-0.803-0.297-1.076-0.376c-0.379-0.108-0.748-0.251-1.149-0.27
			c-0.409-0.018-0.626,0.191-1.066-0.012c-0.681-0.31-0.877-1.619-1.411-1.858c-0.573-0.257-1.282,0.908-1.463,1.427
			c-0.425,1.217,0.247,1.749,1.019,2.502C32.293,135.864,33.825,137.904,35.73,138.131L35.73,138.131L35.73,138.131z
			 M90.449,165.518c1.098,1.241,1.971,2.023,3.419,2.788c1.462,0.77,0.243,0.656-0.159,1.455c-0.324,0.645,0.56,1.521,0.273,2.012
			c-0.195,0.331-1.437,0.144-1.61,0.113c-1.798-0.312-2.029-1.528-2.243-2.95c-0.085-0.576-0.14-0.576-0.387-1.043
			c-0.213-0.401-0.346-0.31-0.346-0.821C89.399,166.572,89.904,165.01,90.449,165.518L90.449,165.518L90.449,165.518z"/>
	</g>
	<path fill="#D71F16" d="M78.05,168.292c1.565,0,2.834-1.269,2.834-2.835c0-1.565-1.269-2.834-2.834-2.834
		c-1.566,0-2.835,1.269-2.835,2.834C75.215,167.023,76.484,168.292,78.05,168.292L78.05,168.292z"/>
	<path fill="#D71F16" d="M79.042,135.669c1.565,0,2.835-1.269,2.835-2.835c0-1.565-1.27-2.835-2.835-2.835
		c-1.566,0-2.835,1.27-2.835,2.835C76.207,134.401,77.476,135.669,79.042,135.669L79.042,135.669z"/>
	<path fill="#D71F16" d="M18.097,93.835c1.566,0,2.835-1.269,2.835-2.835c0-1.565-1.269-2.834-2.835-2.834
		c-1.565,0-2.835,1.269-2.835,2.834C15.262,92.566,16.532,93.835,18.097,93.835L18.097,93.835z"/>
</g>
</svg>
