<?xml version="1.0" encoding="utf-8"?>
<!-- Generator: Adobe Illustrator 17.0.0, SVG Export Plug-In . SVG Version: 6.00 Build 0)  -->
<!DOCTYPE svg PUBLIC "-//W3C//DTD SVG 1.1//EN" "http://www.w3.org/Graphics/SVG/1.1/DTD/svg11.dtd">
<svg version="1.1" id="Ebene_1" xmlns="http://www.w3.org/2000/svg" xmlns:xlink="http://www.w3.org/1999/xlink" x="0px" y="0px"
	 width="178.378px" height="213.313px" viewBox="0 0 178.378 213.313" enable-background="new 0 0 178.378 213.313"
	 xml:space="preserve">
<g>
	<g>
		<defs>
			<rect id="SVGID_1_" y="7" width="178.378" height="206.313"/>
		</defs>
		<clipPath id="SVGID_2_">
			<use xlink:href="#SVGID_1_"  overflow="visible"/>
		</clipPath>
		<path clip-path="url(#SVGID_2_)" fill="#602483" d="M100.53,35.204c0.179-0.273,0.651-0.626,0.485-0.937
			c-0.728-0.077-0.794-0.91-1.122-1.394c-0.454-0.664-1.112-0.883-1.854-1.113c-0.853-0.263-0.142-1.885,0.395-2.653
			c0.537-0.769,0.384-0.922-1.306-1.152c-1.688-0.231,0.845-1.382,1.306-1.843c0.462-0.46,0.462-0.538-0.845-0.616
			c-1.304-0.076-0.075-0.767,0.309-0.998c0.384-0.23-0.826-0.521-0.826-0.521l-0.457-0.24c-0.138,0.073-0.705,0.105-0.822,0.048
			c-0.196-0.095-0.178-0.379-0.43-0.468c-0.472-0.169-0.954-0.174-1.437-0.274c0.15,0.17,0.218,0.374-0.094,0.396
			c-0.314,0.023-0.336-0.296-0.437-0.589c-0.12-0.336-0.482-0.972-0.069-1.125c0.057-0.134,0.438-1.087,0.444-1.092
			c0.369-0.305,0.933-0.63,1.374-0.84c0.436-0.207,0.311-0.702,0.646-0.924c0.398-0.269,0.772-0.256,1.241-0.206
			c0.146-0.534,0.189-1.042,0.303-1.577c-0.538,0.175-1.081-0.208-1.622-0.236c-0.467-0.023-1.12-0.033-1.413-0.455
			c-0.435,0.206-0.715,0.245-1.147,0.055c-0.495-0.214-0.809,0.194-1.188,0.295c-1.016,0.268-1.441-0.398-2.31-0.526
			c-1.084-0.159-2.413-0.242-3.506-0.213c-0.376,0.01-0.547,0.027-0.856-0.112c-0.362-0.163-0.726-0.744-1.215-0.417
			c-0.363,0.061-0.654-0.131-0.988-0.267c-0.418,0.115-0.855,0.049-1.277,0.086c-0.446,0.037-0.828-0.415-1.307-0.41
			c-0.388-0.281-0.907-0.173-1.296-0.547c-0.246-0.235-0.374-0.645-0.519-0.943c-0.182-0.375-0.366-0.232-0.606-0.426
			c-0.291-0.235-0.327-0.045-0.343-0.539c-0.007-0.219,0.137-0.377,0.094-0.587c-0.138-0.642-0.392-0.79-0.911-0.857
			c-0.241-0.031-0.124,0.142-0.431-0.001c-0.191-0.089-0.083-0.372-0.409-0.399c-0.174-0.013-0.363-0.693-0.457-0.976
			c-0.062-0.2-0.275-0.833-0.129-1.013c0.192-0.241,0.479-0.18,0.677-0.347c0.29-0.245,0.416-0.62,0.586-0.962
			c-0.213-0.52-0.942-0.195-1.312-0.083c-0.788,0.302-1.363,0.745-2.226,0.971c-0.657,0.171-1.066,0.566-1.655,0.802
			c-0.251,0.104-0.536,0.088-0.79,0.189c-0.257,0.101-0.226,0.339-0.594,0.28c-0.265-0.044-0.324-0.35-0.648-0.368
			c-0.342-0.019-0.583-0.103-0.907-0.25c-0.456,0.151-0.855,0.369-1.306,0.284c-0.485-0.089-0.313-0.371-0.824,0.031
			c-0.505,0.394-0.436,0.584-1.138,0.391c-0.2-0.051-0.12-0.228-0.378-0.2c-0.215,0.026-0.404,0.135-0.619,0.119
			c-0.428-0.028-1.335,0.375-1.335,0.375s-0.27,0.424-0.806,0.385c-0.539-0.038-0.394,0.576-0.394,0.576
			c-0.251,0.334-0.129,0.537-0.239,0.936c-0.044,0.164-0.225,0.27-0.274,0.442c-0.057,0.199,0.075,0.394-0.013,0.595
			c-0.07,0.158-0.309,0.18-0.4,0.321c-0.072,0.11-0.127,0.451-0.212,0.516c-0.301,0.228-0.944,0.027-1.351,0.074
			c-0.505,0.06-0.687,0.111-1.202-0.084c-0.125-0.045-0.459-0.218-0.555-0.232c-0.065-0.012-0.475,0.044-0.47,0.048
			c-0.43-0.266,0.011-0.271,0.078-0.755c-0.189-0.201-0.681-0.425-0.919-0.551c-0.345-0.179-0.485-0.213-1.001-0.04
			c-0.635,0.213-1.522,0.487-2.053-0.113c-0.057,0.385-0.085,0.74-0.215,1.1c-0.057,0.161-0.271,0.118-0.267,0.33
			c0.003,0.142,0.148,0.295,0.143,0.424c-0.016,0.25-0.037,0.309-0.132,0.544c-0.041,0.104-0.254,0.119-0.3,0.232
			c-0.047,0.109,0.096,0.212,0.064,0.284c-0.051,0.106-0.371,0.611-0.36,0.684c0.062,0.628,0.394,0.666,0.744,0.872
			c0.762,0.453,0.752,1.191,0.23,1.992c-0.42-0.127-0.998-0.272-1.462-0.168c-0.539,0.119-0.591-0.226-0.892-0.523
			c-0.28-0.283-0.316-0.341-0.454-0.606c-0.08-0.156,0.021-0.417-0.215-0.521c-0.249-0.11-1.443,0.44-1.732,0.49
			c-0.049,0.611-0.473,0.858-0.688,1.34c-0.179,0.394-0.064,0.858-0.069,1.277c-0.004,0.403-0.112,0.983,0.602,1.091
			c0.378,0.056,1.072-0.243,0.862,0.522c-0.128,0.464-0.847,0.692-0.642,1.326c0.133,0.412,0.893,0.646,0.924,1.135
			c0.027,0.463-0.554,0.876-0.95,0.876c-0.294,0-0.404,0.24-0.645-0.031c-0.126-0.14,0.056-0.292,0.007-0.399
			c-0.16-0.345-0.864-0.624-0.883-0.946c-0.023-0.431-0.02-1.055-0.274-1.305c-0.382-0.38-0.94-0.261-1.4-0.162
			c-0.342,0.073-1.119,0.648-1.37,0.581c-0.29-0.077-0.338-0.369-0.622-0.034c-0.2,0.236,0.077,0.554-0.127,0.791
			c-0.212,0.246-1.201,0.208-1.55,0.171c-0.686-0.074-1.049-0.265-1.282-0.967c-0.096-0.293-0.318-0.374-0.458-0.609
			c-0.158-0.265-0.128-0.485-0.275-0.813c-0.065-0.362,0.012-0.755,0.013-1.126c0.001-0.322,0.23-0.606-0.192-0.468
			c-0.52,0.171-0.222,0.687-0.9,0.24c-0.163-0.106,0.102-0.248-0.056-0.293c-0.356-0.1-0.777,0.027-1.14,0.065
			c-0.186,0.189-0.47,0.778-0.47,1.027c-0.002,0.385,0.38,0.408,0.371,0.873c-0.01,0.531,0.26,0.908,0.153,1.398
			c-0.14,0.652-0.544,1.203-0.671,1.867c-0.443,0.35-0.651,0.998-1.102,1.247c-0.463,0.145-0.79,0.67-1.094,1.015h-0.001
			c0.027,0.494,0.11,0.802-0.32,1.147c-0.27,0.215-0.781,0.128-0.617,0.644c0.173,0.541,0.041,0.4-0.064,0.862
			c-0.086,0.384,0.042,0.485,0.18,0.986c0.924,0.577,0.772,0.66,0.341,1.586c-0.552,1.19-0.895-0.157-1.854,0.388
			c0.197-0.666,0.258-0.79,0.054-1.518c-0.326-0.284-0.15-0.766-0.532-0.956c-0.283-0.138-0.616-0.332-0.854-0.535
			c-0.148-0.125-0.276,0.023-0.358-0.209c-0.072-0.197,0.157-0.538,0.311-0.64c0.32-0.211,0.627-0.586,0.454-0.979v0.001
			c-0.194-0.369-1.372-0.84-1.592-0.572c-0.542,0.458-1.434-0.285-1.667-0.719c-0.256-0.472-0.623-0.797-0.921-1.247
			c-0.279-0.418-0.897-0.333-1.193-0.747c-0.052-0.647-0.166-0.98,0.035-1.615c0.258-0.821,0.187-1.625,0.16-2.496
			c-0.27-0.308-0.632-0.12-1.003-0.041c-0.326-0.027-0.557,0.204-0.778,0.417c-0.092,0.091-0.254,0.11-0.324,0.215
			c-0.092,0.136,0.076,0.321,0.065,0.343c-0.293,0.596-1.065,1.05-1.407,1.724c-0.232,0.191-0.494,0.307-0.783,0.257h-0.001
			c-0.292,0.03-0.841,0.451-0.823,0.796c0.01,0.187,0.58,0.623,0.677,0.809c0.565,1.095-0.34,2.02-1.356,2.274
			c-0.395,0.763-0.078,2.131-1.434,2.093c-1.183-0.032-0.633,0.898-1.278,1.457c-0.205-0.041-0.562,0.021-0.746-0.048
			c-0.093-0.035-0.258-0.221-0.314-0.232c-0.2-0.036-0.587,0.077-0.759,0.008c-0.247-0.098-0.423-0.66-0.754-0.823
			c-0.411-0.203-0.896-0.094-1.294-0.349c-0.475-0.247-0.448,0.579-1.029,0.479c-0.449,0.22-0.805,0.615-1.296,0.775
			c-0.691,0.222-1.441,0.087-2.14,0.315c-0.528,0.171-0.767,0.281-1.301,0.292c-0.855,0.018-0.991-0.307-1.571-1.003
			c-0.578,0.657-0.853,1.416-1.84,1.556c-0.21,0.031-0.399-0.077-0.585-0.05c0.091-0.014-0.284,0.277-0.266,0.266
			c-0.145,0.083-0.31-0.214-0.473,0.075C3.013,32.053,3,32.429,2.938,32.769c0.107,0.913,0.212,1.315,0.993,1.903
			c0.224,0.169,0.545,0.382,0.806,0.552c0.179,0.116,0.521-0.021,0.645,0.327c0.104,0.284-0.226,0.576-0.205,0.893
			c0.019,0.321,0.11,0.759,0.189,1.079c0.187,0.757,0.853,0.885,1.361,1.364c0.15,0.212,0.147,0.506,0.311,0.699
			c0.15,0.176,0.409,0.233,0.583,0.393c0.332,0.309,0.273,0.094,0.161,0.551c-0.076,0.32-0.324,0.56-0.469,0.838
			c-0.132,0.255-0.343,0.244-0.381,0.547c-0.031,0.233,0.209,0.519,0.223,0.761c0.023,0.4-0.305,0.84-0.672,1.027
			c-0.298,0.151-0.318,0-0.763,0.07c-0.464,0.071-0.79,0.389-1.094,0.636c-0.23,0.191-0.573,0.363-0.784,0.561
			c-0.24,0.224,0.027,0.338-0.423,0.403c-0.544,0.078-0.983-0.572-1.514-0.508c-0.277,0.034-0.277,0.324-0.642,0.27
			c-0.364-0.053-0.826,0.317-1.121,0.469c-0.299,0.242-0.044,0.443,0.058,0.733c0.044,0.119,0.154,0.725,0.219,0.81
			c0.32,0.421,0.875,0.118,1.162,0.551c0.096,0.146,0.052,0.998,0.036,1.172c-0.048,0.682-0.119,0.833,0.618,1.256
			c0.481,0.277,0.787,0.71,1.36,0.82c0.55,0.106,0.75-0.29,1.346,0.135c0.151,0.109,0.411,0.238,0.454,0.451
			c0.055,0.269-0.185,0.285-0.2,0.509c-0.037,0.649,0.228,1.241,0.637,1.707c0.12,0.699,0.011,0.609-0.592,0.465
			c-0.554-0.139-0.809,0.378-1.042,0.775c0.654,1.145-1.744,1.709-1.36,2.917c0.068,0.21,0.986,1.269,0.914,1.328
			c-0.291,0.229-0.434,0.107-0.622,0.462c-0.154,0.297-0.144,0.871,0.168,1.035c0.103,0.652,0.759,1.198,1.054,1.753
			c0.387,0.726,0.415,0.452,1.164,0.676c0.296,0.087,0.526,0.423,0.779,0.521c0.276,0.105,0.435-0.012,0.732,0.171
			c0.43,0.266,0.749,0.74,1.216,0.975c0.285,0.144,0.58,0.103,0.876,0.223c0.227,0.091,0.214,0.395,0.429,0.451
			c0.971,0.25,2.429-0.213,3.3-0.529c0.117-0.042,0.25,0.068,0.377,0.006c0.106-0.052,0.062-0.266,0.216-0.333
			c0.157-0.07,0.36-0.255,0.561-0.025c0.135,0.157-0.079,0.548-0.059,0.728c0.053,0.431,0.419,0.786,0.676,1.137h-0.003
			c-0.067,0.489-0.443,0.581-0.625,0.914c-0.111,0.204-0.016,0.446-0.111,0.638c-0.171,0.335-0.692,0.701-0.975,0.925
			c-0.371,0.294-0.342,0.198-0.595,0.691c-0.174,0.338-0.259,0.368-0.509,0.629c-0.635,0.666-0.156,1.37,0.119,2.251
			c0.001,0.001,0.003,0.001,0.003,0.003c0.486-0.027,0.844-0.139,1.319-0.06c0.327,0.054,0.475,0.148,0.804,0.084
			c0.635-0.125,1.188-0.669,1.872-0.641c1.366,0.058,3.917-1.139,4.619-2.307c0.773-0.325,0.226-0.52,0.477-1.111
			c0.219-0.514,0.802-0.709,0.975-1.317c0.27-0.95,0.459-1.428,1.452-1.829c0.272-0.11,0.864-0.22,1.042-0.454
			c0.2-0.267,0.082-0.448,0.178-0.689c0.083-0.214,0.281-0.393,0.36-0.6c0.219-0.575,0.183-0.676,0.652-1.208
			c0.503-0.565,1.314-0.841,1.983-1.188c0.171-0.411,0.446-0.275,0.762-0.418c0.252-0.114,0.456-0.332,0.707-0.472
			c0.331-0.183,1.492-0.441,1.594,0.048c0.236,0.034,1.246,0.172,1.286,0.214c0.246,0.267,1.088,0.425,1.466,0.489
			c0.354,0.065,0.869,0.08,1.18,0.276c0.316,0.194,0.265,0.478,0.428,0.69c0.249,0.319,0.583,0.436,0.991,0.624
			c-0.458-1.623,1.641-0.251,2.1,0.219c0.388,0.403,0.445,0.607,0.906,0.82c0.427,0.199,0.894,0.254,1.168,0.726
			c0.349,0.222,0.71,0.431,1.03,0.69c0.176,0.144,0.268,0.403,0.387,0.502c0.383,0.315,0.678,0.136,1.126,0.436
			c0.364,0.242,0.583,0.574,0.92,0.826c0.319,0.24,0.706,0.413,1.042,0.619c0.216,0.133,0.126,0.546,0.29,0.172
			c-0.013,0.031-0.057-0.447-0.068-0.5c-0.056-0.26-0.297-0.175-0.143-0.501c0.126-0.263,0.154-0.199,0.433,0.038
			c0.319,0.273,0.722,0.482,1.076,0.73c0.574,0.4,0.667-0.039,1.319,0.271c0.816,0.351,1.247,0.891,1.833,1.564l0.004-0.001
			c0.799,0.772,1.188,1.763,1.522,2.797c0.262,1.507,0.236,3.046,0.459,4.566c0.187,0.663,0.164,1.359,0.472,2.003
			c0.283,0.58,0.879,0.938,1.239,1.541c0.648,1.077,1.6,2.412,1.885,3.7c0.212,0.97,0.192,1.907,0.124,2.887
			c-0.028,0.458-0.07,1.168-0.326,1.531c-0.28,0.397-0.584,0.416-0.33,1.077c0.311,0.804,0.747,0.066,1.06-0.1
			c0.715-0.373,1.792,0.1,2.455,0.381c0.251,0.116,0.497,0.272,0.635,0.521c0.187,0.336-0.062,0.352-0.075,0.658
			c-0.021,0.405,0.233,1.12-0.357,1.269c0.295,0.582,1.369,0.582,1.939,0.799c0.661,0.251,1.267,0.541,1.68,1.144
			c0.358,0.524,0.285,0.826,0.878,1.143c0.63,0.341,0.558,0.713,1.003,1.256c0.332,0.406,0.842,0.466,1.086,1.066
			c0.158,0.383,0.15,1.251-0.158,1.58c-0.402,0.427-1.291-0.242-1.157,0.668c0.055,0.372,0.794,0.991,1.159,0.881
			c0.715-0.216,0.296-1.015,1.112-0.986c0.282,0.007,0.547,0.189,0.804,0.253c0.28,0.073,0.628,0.09,0.918,0.104
			c0.08-0.334,0.135-0.028,0.337,0.025c0.327,0.092,0.695,0.298,1.035,0.407c0.8,0.415,1.638,0.76,2.372,1.288
			c0.708,0.507,2.045,1.994,1.975,2.924c0.224,0.657,0.689,1.261,1.058,1.85c0.528,0.846,0.655,0.346,1.464,0.413
			c0.25,0.021,0.638,0.264,0.838,0.406c0.243,0.171,0.546,0.322,0.772,0.485c0.319,0.227,0.418,0.57,0.788,0.748
			c0.293,0.141,0.627,0.293,0.881,0.487c0.635,0.471,0.954,1.162,1.255,1.856c0.194,0.448,0.176,1.3,0.451,1.654
			c0.272,0.353,1.115,0.487,1.514,0.713c0.705,0.401,1.263,1.026,1.895,1.542c0.796,0.651,1.576,1.54,2.142,2.403
			c0.356,0.542,0.277,0.793,0.93,0.876c0.475,0.066,0.685,0.016,1.188,0.337c0.283,0.182,0.586,0.576,0.92,0.343
			c1.48-0.024,2.37,0.686,3.243,1.816c0.277,0.356,0.689,0.872,0.718,1.327c0.058,0.994,1.009,0.237,1.402-0.069
			c1.18-0.923,2.601-1.25,4.009-0.638c0.406,0.179,2.457,1.533,2.776,1.06c0.067-0.101-0.254-0.329,0.029-0.647
			c0.1-0.115,0.484-0.32,0.639-0.361c0.283-0.075,0.716,0.07,0.991,0.122c0.332,0.062,0.423-0.106,0.783,0.226
			c1.127,0.889,1.962,1.931,2.687,3.191c0.283,0.491,0.267,0.809,0.721,1.202c0.433,0.376,0.682,0.793,0.99,1.287
			c0.4,0.576,0.746,1.269,0.788,1.975c0.008,0.141-0.09,0.648-0.023,0.742c0.488,0.689,0.437-0.245,0.462-0.29
			c0.306-0.645,0.767-0.168,1.412-0.007c0.736,0.182,0.306,0.08,0.724-0.32c0.109-0.102,0.525-0.416,0.658-0.433
			c0.589-0.081,1.031,0.481,1.411,0.831c0.178,0.163,0.435,0.431,0.657,0.533c0.216,0.1,0.485,0.025,0.664,0.104
			c0.435,0.2,0.894,0.848,0.485,1.28c-0.192,0.204-0.422,0.358-0.599,0.586c-0.114,0.142-0.251,0.44-0.391,0.56
			c-0.446,0.389-0.887,0.238-0.925,1.033c-0.04,0.741,1.461-0.509,1.738-0.672h-0.002c0.259,0.032,0.414-0.188,0.611-0.188
			c0.283,0.002,0.504,0.209,0.783,0.233c0.483,0.048,0.706-0.252,1.012-0.531c0.513-0.473,0.554-0.075,1.112-0.188
			c0.404-0.082,0.422-0.566,0.8-0.747c0.889-0.423,1.915,1.115,2.427,1.751c0.442,0.551,0.614,1.142,0.927,1.755
			c0.4,0.784,1.608,1.88,0.778,2.739c-0.293,0.306-0.456,0.157-0.503,0.611c-0.031,0.283,0.2,0.454,0.083,0.778
			c-0.105,0.293-0.556,0.289-0.384,0.7c0.121,0.287,0.799,0.345,1.089,0.461c0.537,0.218,0.641,0.784,1.18,0.883
			c0.718,0.137,0.992-0.281,1.661,0.273c0.431,0.356,2.61,1.644,1.871,2.232c0.479,0.051,0.681,0.032,1.081,0.226
			c0.252,0.125,0.335,0.209,0.592,0.272c0.818,0.209,0.936-0.25,1.404-0.815c0.423-0.507,0.533-0.864,1.247-0.949
			c0.26-0.033,0.477-0.06,0.74,0.003c0.451,0.112,0.368,0.163,0.715,0.509c0.475,0.116,0.482,0.613,0.833,0.879
			c0.442,0.343,0.697,0.822,1.004,1.288c0.169,0.314,0.561,0.816,0.615,1.188c0.078,0.52-0.13,0.618,0.096,1.142
			c0.246,0.584,0.358,1.19,0.483,1.799c0.124,0.624,0.44,0.972,0.727,1.53c0.367,0.718,0.415,1.491,1.037,1.954
			c0.418,0.308,0.664,0.536,0.98,0.958c1.88,2.528,1.939,5.629,3.025,8.511c0.093,0.491,0.837,1.614,1.21,1.931
			c0.387,0.329,0.841,0.123,1.064,0.636c0.089,0.207,0.05,0.62,0.064,0.844c0.05,0.8,0.065,2.101-0.58,2.669
			c-0.493,0.427-0.705,0.636-1.34,0.554c-0.408-0.055-0.85-0.086-1.247,0.041c-0.454,0.148-0.723,0.511-1.127,0.793
			c-0.406,0.283-0.986,0.449-1.253,0.879c-0.555,0.888,1.665,1.374,1.486,2.539c-0.233,0.936-0.469,1.839-0.762,2.75
			c-0.426,1.317-0.506,2.507-2.142,2.812c-0.338,0.174-1.023,0.368-1.178,0.758c-0.208,0.513,0.359,0.94,0.461,1.376
			c0.121,0.516-0.337,0.833-0.286,1.29c0.039,0.331,0.33,0.472,0.417,0.784c0.117,0.411-0.105,0.301-0.139,0.667
			c-0.037,0.4,0.31,0.904,0.609,1.166c0.856,0.753,1.973,0.683,3.001,0.458c0.939-0.205,1.88,0,2.793-0.248
			c1.189-0.32,1.525-1.821,1.582-2.952c0.017-0.352,0.045-0.752,0.115-1.094c0.166-0.814,0.837-1.436,1.286-2.122
			c0.306-0.472,0.539-1.008,0.869-1.462c0.393-0.537,0.904-0.711,1.474-1.008c1.096-0.571,2.217-1.619,2.372-2.901
			c-0.09-0.872-0.223-1.732-0.454-2.577c-0.139-0.518-0.434-1.086-0.406-1.637c0.018-0.341-0.275-0.41-0.31-0.646
			c-0.07-0.458,0.393-1.198,0.566-1.612c0.428-1.022,1.625-1.842,2.558-2.457c0.866-0.571,1.898-1.241,2.951-1.376
			c0.663-0.087,0.681,0.509,1.173,0.524c0.265,0.009,0.353-0.375,0.775-0.295c0.252,0.05,0.442,0.03,0.499,0.338
			c0.214-0.415,0.718-0.89,0.862-1.283c0.221-0.61-0.321-0.96,0.374-1.392c-0.911-0.375-1.638-0.986-1.467-2.158
			c0.054-0.372,0.28-0.931,0.235-1.289c-0.059-0.459-0.541-0.709-0.679-1.151c-0.254-0.823,0.161-1.663,0.257-2.453
			c0.052-0.459,0.205-0.187-0.109-0.444c-0.122-0.099-0.492-0.154-0.653-0.221c-0.653-0.29-0.928-0.576-1.39-1.145
			c-0.968-0.048-2.102-0.572-2.854-1.143c-0.424-0.322-0.79-1.087-1.345-1.228c-0.235-0.057-0.902,0.074-1.223,0.104
			c-0.853,0.071-2.222,0.157-2.631-0.786c-0.114-0.259-0.07-0.493-0.086-0.762c-0.019-0.348-0.304-0.252-0.456-0.461
			c-0.405-0.555-0.246-1.23-0.031-1.822c0.189-0.522,0.407-1.017,0.712-1.476c0.223-0.339,0.87-0.893,0.879-1.306
			c0.011-0.377-0.399-0.875-0.487-1.29c-0.177-0.836-0.122-1.184,0.358-1.919c0.619-0.697,1.101-1.351,1.345-2.275
			c0.337-1.277,0.846-2.317,1.488-3.495c0.314-0.936,1.065-1.79,1.828-2.385c0.282-0.221,0.728-0.486,1.086-0.545
			c0.422-0.075,1.029,0.068,1.413,0.25c0.285,0.134,0.264,0.365,0.614,0.329c0.285-0.029,0.65-0.779,0.899-0.384
			c-0.073-0.12,1.696,0.007,0.544,0.439c-0.217,0.079-0.542-0.135-0.736-0.051c-0.425,0.18-0.066,0.027-0.085,0.346
			c-0.019,0.317,0.083,0.329-0.093,0.699c-0.096,0.197-0.636,0.259-0.087,0.473c1.045,0.401,2.295,1.048,3.373,1.209
			c0.361,0.053,0.707,0.209,1.063,0.273c0.465,0.082,0.918-0.011,1.416-0.095c0.901-0.15,1.734-0.212,2.653-0.227
			c0.649,0.02,1.316,0.015,1.839,0.354c0.552,0.359,0.565,0.65,0.76,1.265c0.3,0.966,2.164,1.31,1.562,2.484
			c-0.054,0.11-0.568,0.344-0.264,0.391c0.241,0.039,0.344,0.041,0.52,0.234c0.257,0.281,0.156,0.406,0.112,0.713
			c-0.01,0.07-0.249-0.07-0.256,0.021c-0.066,0.726,1.565,1.766,2.092,2.069c0.532,0.302,0.961,0.717,1.617,0.756
			c0.54,0.036,0.933,0.068,1.439,0.279c0.422,0.177,0.677,0.43,1.151,0.209c0.311-0.375,0.163-1.237,0.17-1.726
			c0.006-0.543-0.141-1.006-0.079-1.569c0.046-0.409,0.134-0.721,0.314-1.058c0.219-0.414,0.461-0.703,0.622-1.193
			c0.155-0.473,0.404-0.795,0.224-1.304c-0.192-0.54-0.81-0.976-0.956-1.516c-0.396-1.451-1.638-2.022-2.644-3.028
			c-0.431-0.431-0.89-0.974-1.361-1.322c-0.415-0.306-1.04-0.384-1.508-0.583c-0.425-0.175-0.771-0.42-1.157-0.686
			c-0.678-0.542-0.513-0.761-0.806-1.41c-0.233-0.518-0.495-0.727-1.029-0.664c-0.241,0.028-0.457-0.648-0.933-0.623
			c-0.321,0.019-0.649-0.019-0.966-0.059c-0.758-0.088-1.481-0.724-2.196-0.992c-0.627-0.237-1.281-0.408-1.937-0.54
			c-1.389-0.287-2.224-0.829-3.378-1.698c-0.616-0.342-0.907-0.756-1.44-1.169c-1.071-0.829-2.413-1.371-3.664-1.853
			c-0.737-0.285-1.558-0.335-2.321-0.544c-0.535-0.15-0.983-0.315-1.525-0.376c-0.769-0.089-1.576-0.605-2.382-0.752
			c-0.64-0.117-1.26-0.108-1.802-0.526c-0.582-0.449-1.389-0.527-2.047-0.828c-1.178-0.539-2.407-0.954-3.617-1.404
			c-0.923-0.133-1.91-0.62-2.781-0.974c-1.006-0.408-1.846-1.227-2.143-2.285c-0.368-1.326,0.302-1.661,1.283-2.337
			c0.408-0.283,0.707-0.638,1.002-1.002c0.372-0.451,0.806-0.671,1.219-1.063c0.393-0.374,0.587-0.925,0.466-1.473
			c-0.098-0.448-0.432-1.18-0.705-1.405c-1.768-1.47-3.847-0.207-5.852,0.142c-0.786,0.136-1.649-0.193-2.363,0.053
			c-0.539,0.185-1.114,0.357-1.674,0.463c-0.772,0.148-1.403,0.117-2.188,0.045c-0.99-0.088-1.999,0.057-3.004,0.005
			c-1.094-0.168-1.599-1.19-2.582-1.385c-0.373-0.077-0.731-0.123-1.109-0.143c-0.649-0.037-1.527-0.718-2.156-0.94
			c-0.362-0.419-0.641-0.706-0.763-1.229c-0.088-0.394,0.076-0.566-0.373-0.718c-0.578-0.195-1.322-0.347-1.851-0.65
			c-0.527-0.301-0.939-0.869-1.402-1.261c-0.395-0.336-0.775-0.616-1.083-1.041c-0.631-0.864-1.486-1.269-2.429-1.834
			c-0.61-0.508-1.146-1.012-1.688-1.591c-0.85-0.43-1.583-1.864-2.103-2.616c-0.956-1.381-1.485-2.99-2.006-4.579
			c-0.568-1.165-0.744-2.304-1.06-3.536c-0.195-0.757-0.697-1.385-0.967-2.127c-0.267-0.744-0.537-1.378-0.923-2.09l-1.267-2.74
			c-0.129-0.369-0.397-0.64-0.539-0.995c-0.109-0.267-0.023-0.595-0.091-0.834c-0.145-0.52-1.066-1.256-1.581-1.607
			c-0.257-0.178-0.503,0.231-0.804,0.247c-0.442,0.026-1.125-0.441-1.512-0.623c-1.057-0.492-1.917-1.239-2.841-1.952
			c-1.736-1.482-3.852-3.724-6.177-3.993c-1.197-0.094-2.029-1.269-2.859-2.01c-1.003-0.898-1.884-1.889-2.688-2.962
			c-0.759-0.883-0.919-2.506-1.206-3.581c-0.168-0.649-0.394-1.109-0.415-1.813c-0.023-0.771,0.054-1.505-0.186-2.243
			c-0.724-0.752-0.48-2.219-0.271-3.137c0.058-0.259,0.083-1.37,0.553-1.119c0.513,0.277,0.624,1.203,1.308,0.896
			c0.759-0.246,0.021-0.514-0.039-0.703c-0.033-0.103,0.283-0.118,0.252-0.229c-0.018-0.053-0.177-0.231-0.177-0.251
			c-0.002-0.163-0.23-0.193-0.108-0.446c0.137-0.284,0.697-0.887,0.603-0.175c-0.072,0.549,0.008,0.74,0.135,1.281
			c0.283-0.367,0.62-0.902,0.661-1.393c0.021-0.275-0.22-0.884,0.171-0.656c0.223-0.413,0.417-1.487-0.394-1.299
			c0.495,0.694-0.57-0.261-0.747-0.468c-0.318-0.377-0.593-0.667-0.99-0.971c0.224,0.3,0.355,0.462,0.21,0.833
			c-0.16,0.413-0.235-0.403-0.274-0.561c-0.104-0.405-0.313-0.893-0.609-0.544c-0.324,0.383-0.501-0.79-0.012-0.45
			c0.152-0.376,0.03-0.856,0.015-1.252c-0.202-0.452-0.431-0.757-0.398-1.274c-0.024,0.162-0.457,0.651-0.457,0.651
			c-0.285,0.093-0.422,0.071-0.62-0.305c-0.205-0.391,0.303-1.421-0.306-1.568c-0.008,0.138-0.064,0.328-0.049,0.464
			c-0.438,0.646-0.584-0.342-0.65-0.671c0.152-0.412,0.253,0.079,0.566,0.018c0.488-0.096,0.369-0.74,0.462-1.078
			c0.051-0.186,0.324-0.428,0.342-0.679c0.005-0.071-0.182-0.154-0.166-0.309c0.01-0.133,0.085-0.272,0.103-0.409
			c0.099-0.691,0.369-0.994,1.02-1.331c0.264-0.135,0.243-0.25,0.56-0.238c0.16,0.008,0.004,0.264,0.277,0.268
			c0.944,0.018-0.039-0.366-0.133-0.473c-0.168-0.196,0.133-0.279,0.167-0.282c-0.048,0.003,0.256,0.196,0.318,0.209
			c0.141,0.031,0.087,0.288,0.307,0.124c0.163-0.122-0.115-0.221-0.065-0.303c0.228-0.37,0.508-0.947,0.93-0.747
			c0.216,0.1,0.226,0.464,0.534,0.514c-0.023-0.004,0.695-0.509,0.408-0.064c-0.169,0.262-0.509,0.208-0.656,0.403
			c-0.069,0.095-0.028,0.418-0.021,0.408c-0.402,0.427-0.093-0.214-0.718-0.078c-0.097,0.022,0.192,0.382-0.097,0.287
			c-0.155-0.051-0.117-0.062-0.214,0.053c-0.093,0.11-0.345,0.491-0.361,0.643c-0.071,0.644,0.361,0.198,0.82-0.029
			c0.48-0.236,0.985-0.416,1.447-0.684c1.252-0.729,2.573-1.458,3.722-2.343c0.477-0.367,1.049-0.761,1.615-0.866
			c0.42-0.081,1.366,0.24,1.56-0.42c0.129-0.4,0.523-0.539,0.671-0.889c-0.419,0.155-1.259,0.354-1.008-0.428
			c0.062-0.196,0.677-0.975,0.695-0.958c0.622,0.552,0.153-0.204,0.871-0.253c0.35-0.024,0.65,0.363,1.034,0.409
			c0.605,0.073,1.244,0.486,1.835,0.439c0.739,0.234,0.288,0.787-0.207,0.945c0.672,0.442,1.607-0.871,2.224-1.127
			c-0.621-0.188-0.35-1.379,0.405-1.065c0.406,0.333,0.907,0.238,1.269,0.725c0.327,0.433,0.849,0.685,1.123,1.09
			c0.225,0.331,0.051,0.466,0.111,0.765c0.015,0.081,0.415,0.329,0.51,0.484c0.073,0.121,0.397,0.053,0.145,0.263
			c-0.132,0.109-0.314-0.074-0.44-0.044c-0.283,0.07-0.475-0.169-0.608,0.258c0,0,0,0.002-0.004,0.002h0.004
			C99.017,35.395,100.045,35.725,100.53,35.204L100.53,35.204z M25.267,154.292c-0.457,0.036-0.658-0.379-0.853-0.691
			c-0.479-0.768-0.631-0.89-0.622,0.187c0.005,0.424,0.075,0.879,0.039,1.29c-0.034,0.392,0.193,0.687,0.215,1.081
			c0.031,0.524-0.248,1.139-0.5,1.587c-0.161,0.293-0.831,0.851-0.744,1.137c0.101,0.344,0.353,0.45,0.298,0.836
			c-0.039,0.278-0.283,0.355-0.36,0.582c-0.167,0.47-0.034,0.475,0.249,0.915c0.205,0.316,0.291,0.504,0.405,0.917
			c0.227,0.825-0.597,0.682-0.854,1.229c-0.172,0.363,0.325,1.013,0.509,1.422c0.431-0.497,0.411,0.831,0.508,0.995
			c0.095,0.156,0.378,0.002,0.502,0.406c0.061,0.207,0.229,0.475,0.035,0.663c-0.181,0.182-0.569-0.69-0.936-0.786
			c-0.028-0.007-0.629,0.021-0.674,0.03c-0.183,0.036-0.262-0.289-0.361,0.229c-0.086,0.441,0.414,2.635,0.951,2.66
			c0.859,0.043,0.454-1.946,1.222-2.31c0.482-0.227,0.122-0.004,0.324,0.177c0.104,0.096,0.28,0.284,0.456,0.4
			c0.267,0.168,0.316-0.162,0.425,0.44c0.06,0.327,0.016,0.609,0.101,0.952c0.122,0.488,0.428,0.177,0.568,0.513
			c0.114,0.264,0.013,0.502,0.029,0.759c0.01,0.171-0.168,0.152-0.083,0.366c0.049,0.122,0.317,0.024,0.355,0.077
			c0.158,0.213,0,0.47,0.285,0.545c-0.192-0.827,0.671-0.757,1.109-1.213c0.325-0.341,1.108,0.656,1.312,0.843
			c-0.017-0.089,0.011-0.187,0.005-0.269c0.514,0.171,0.46,0.531,1.023,0.321c0.509-0.196,0.715-0.777,1.121-1.099
			c0.472-0.377,1.071-0.691,1.322-1.216c0.081-0.163,0.189-0.54,0.217-0.71c0.078-0.43,0.03-0.323-0.108-0.711
			c-0.195-0.529-0.311-1-0.126-1.56c0.144-0.439,0.422-0.698,0.744-1.022c0.424-0.425,0.132-0.368-0.084-0.493
			c-0.174-0.1-0.337,0.038-0.516-0.13c-0.079-0.074-0.389-0.478-0.271-0.624c0.221-0.268,1.048,0.593,1.2,0.704
			c0.274,0.199,0.739,1.013,1.149,0.838c0.094-0.041,0.208-0.507,0.402-0.622c0.272-0.161,0.436-0.166,0.731-0.144
			c0.433,0.037,1.094,0.232,1.436,0.478c0.21,0.151,0.503,0.336,0.663,0.506c0.171,0.178,0.281,0.531,0.421,0.654
			c0.098,0.086,0.669,0.334,0.803,0.35c0.251,0.029,0.555-0.257,0.815-0.098c0.185,0.118,0.134,0.913,0.426,0.32
			c0.157-0.32,0.432-0.334,0.599-0.604c0.251-0.404,0.029-0.688,0-1.044c-0.035-0.404,0.11-0.94,0.277-1.307
			c0.117-0.26,0.49-0.465,0.562-0.629c0.169-0.372-0.089-0.115-0.21-0.517c-0.242-0.809,0.402-1.76,0.521-2.548
			c0.114-0.771-0.355-1.461,0.212-2.16c0.085-1.513,0.201-2.993,0.29-4.483c0.036-0.611,0.294-1.252,0.199-1.817
			c-0.043-0.254-0.043-0.699,0.12-0.908c0.138-0.182,0.353-0.084,0.319-0.379c-0.021-0.195-0.31-0.048-0.415-0.337
			c-0.08-0.215,0.051-0.567,0.101-0.785c0.086-0.386,0.22-0.759,0.341-1.12c0.345-1.037-0.578-1.313-1.041-2.194
			c-0.715-1.36-0.238-2.688,0.648-3.783c0.342-0.425,0.935-0.64,1.214-1.077c0.259-0.406,0.471-1.074,0.583-1.556
			c0.148-0.624,0.213-0.819-0.074-1.328c-0.345-0.608-0.771-0.963-0.847-1.644c-0.033-0.327,0.078-0.772-0.032-1.075
			c-0.089-0.245-0.317-0.354-0.421-0.574c-0.188-0.404-0.237-0.776-0.452-1.146c-0.124-0.212-0.251-0.403-0.345-0.634
			c-0.038,0.038-0.023,0.091-0.052,0.129c-0.048-0.24,0.316-0.722,0.425-0.949c0.033-0.076,0.454,0.1,0.293-0.136
			c-0.161-0.236-0.498-0.366-0.739-0.234h0.003c-0.216-0.239-0.438-0.499-0.66-0.754c-0.124-0.143,0.488-0.491,0.006-0.624
			c-0.208-0.058-0.376,0.344-0.608,0.365c-0.149,0.016-0.549-0.216-0.778-0.234c-0.559-0.043-0.213-0.234,0.032-0.313
			c0.465-0.15,0.309,0.225,0.585-0.271c0.243-0.431,0.011-1.04,0.634-1.092c0.207-0.018,0.433,0.457,0.64,0.097
			c0.114-0.197-0.409-0.272-0.567-0.31c-0.568-0.146-0.93,0.265-0.885-0.403c0.027-0.407-0.578,0.326-0.464,0.287
			c-0.407,0.138-0.121-0.016-0.087-0.321c0.024-0.211,0.038-0.48,0.13-0.668c0.048-0.095-0.001-0.222,0.064-0.324
			c0.062-0.099,0.238,0.174,0.35-0.033c0.254-0.482-0.327-1.029-0.627-1.358c-0.128,0.518-0.479,0.03-0.768,0.219
			c-0.067,0.045-0.27,0.791-0.356,0.939c-0.094-0.29-0.074-0.601-0.175-0.873c-0.052-0.138-0.125-0.306-0.244-0.397
			c-0.2-0.151,0.156-0.244,0.009-0.394c-0.192-0.2-0.62-0.016-0.757-0.381c-0.138-0.363-0.526-0.276-0.475,0.117
			c-0.127-0.053-0.498-0.017-0.578-0.075c-0.137-0.102-0.093-0.283-0.217-0.454c-0.011,0.161-0.104,0.305-0.094,0.476
			c-0.282-0.23,0.078-0.505-0.067-0.821c-0.099-0.226-0.573-0.397-0.744-0.438c-0.013,0.005-1.201,0.285-1.153,0.222
			c-0.122,0.156,0.191,0.193,0.277,0.449c0.018,0.06-0.028,0.651-0.039,0.711c-0.091,0.549-0.278,0.437-0.537,0.758
			c-0.447,0.554-0.83,0.216-1.423,0.421c-0.534,0.184-0.949,0.874-1.296,1.293c-0.344,0.421-0.859,0.618-1.108,0.968
			c-0.117,0.159-0.123,0.484-0.293,0.706c-0.275,0.357-0.661,0.952-1.091,1.138c-0.472,0.207-1.05,0.073-1.569,0.273
			c-0.703,0.268-0.677,0.681-1.2,1.081c-0.363,0.276-1.081,0.449-1.54,0.508c-0.594,0.078-0.871-0.252-1.409-0.343
			c-0.528-0.091-1.013,0.073-1.541-0.213c-0.36-0.195-0.913-0.838-1.063-1.222c-0.121-0.309,0.085-1.505-0.614-1.003
			c-0.613,0.442,0.262,0.949,0.363,1.31c0.119,0.434-0.342,1.03-0.537,1.424c-0.239,0.472-0.299,0.899-0.479,1.383
			c-0.2,0.533-0.31,0.454,0.155,0.924c0.305,0.309,0.361,0.359,0.313,0.777c-0.059,0.516-0.423,0.531-0.643,0.935
			c-0.165,0.302,0.032,0.802,0.185,1.065c0.081-0.235,0.135-0.538,0.307-0.731c0.528-0.595,0.29,0.091,0.357,0.256
			c0.143,0.341-0.107,0.423,0.428,0.341c0.277-0.038,0.539-0.449,0.874-0.356c0.576,0.159,0.355,1.29,0.71,1.742
			c0.209,0.264,0.385,0.197,0.545,0.563c0.139,0.313,0.158,0.734,0.257,1.07h-0.003c0.118,0.431-0.367,1.371-0.079,1.624
			c0.187,0.163,0.456,0.091,0.662,0.202c0.456,0.242,0.471,0.631,0.764,1.008c-0.052,0.522-0.278,0.983-0.352,1.497
			c-0.099,0.672,0.135,1.218,0.28,1.842c0.117,0.483,0.14,0.908-0.306,1.246c-0.329,0.243-0.909,0.056-1.122,0.222
			c-0.294,0.232,0.351,0.362,0.286,0.886c-0.026,0.207-0.275,0.325-0.263,0.538c0.011,0.212,0.094,0.414,0.102,0.627
			c0.007,0.266-0.128,0.607,0.001,0.845c0.209,0.382,0.53,0.168,0.535,0.804c0.12-0.209,0.177-0.513,0.367-0.709
			c-0.11,0.019-0.177-0.004-0.281,0.023c0.118-0.613,1.169-0.259,1.467,0.091c0.503,0.597,0.317,1.994-0.241,2.571
			c0.093-0.104,0.22-0.2,0.313-0.307c-0.042,0.297-0.588,0.664-0.523,0.952C24.862,153.915,25.852,154.094,25.267,154.292
			L25.267,154.292L25.267,154.292z M87.012,191.609c0.161-0.329,0.462-0.408,0.624-0.704c0.22-0.405,0.155-0.736,0.076-1.099
			c-0.081-0.359-0.138-0.384-0.073-0.709c0.111-0.552,0.455-1.035,0.513-1.626c0.046-0.495-0.058-0.132,0.217-0.524
			c0.115-0.166,0.358-0.559,0.511-0.67c0.446-0.329,0.959-0.069,1.372-0.541c0.283-0.322,0.241-0.531,0.586-0.72
			c0.269-0.149,0.534,0.152,0.751-0.351c0.229-0.523-0.539-0.91,0.145-0.973c0.791-0.07,0.843,1.667,1.594,2.225
			c0.913,0.68,1.157,0.864,2.331,0.312c0.47-0.32,1.022-0.602,1.402-1.028c0.223-0.248-0.191-0.53-0.191-0.784
			c0-0.314,0.409-1.085,0.754-1.21c0.602-0.223,0.871,0.44,1.48,0.199c0.601-0.239,0.975-0.96,1.742-0.943
			c0.295,0.005,0.958,0.805,1.003,1.134c0.08,0.627-0.234,0.91,0.634,1.112c0.566,0.13,1.04,0.014,1.479-0.315
			c0.683-0.509,0.525,0.779,0.624,0.972c0.249,0.481,1.599,1.072,2.13,1.226c1.118,0.325,1.914,0.405,2.978-0.075
			c0.885-0.394,1.452-0.899,2.421-1.076c0.233-0.041,0.202-0.144,0.467-0.118c0.227,0.02,0.52,0.224,0.792,0.265
			c0.601,0.091,0.994-0.181,1.604-0.02c0.964,0.003,2.123,0.154,3.045-0.238c0.251-0.107,0.447-0.307,0.708-0.4
			c0.527-0.191,1.122-0.08,1.651-0.257c0.654-0.22,1.595-0.527,2.075-1.048c0.346-0.38,0.527-0.939,0.885-1.302
			c0.394-0.4,1.372-0.355,2.007-0.516c0.285-0.072,0.767-0.47,1.022-0.478c0.295-0.012,0.441,0.308,0.673,0.43
			c0.433,0.237,0.849,0.033,1.261,0.189c0.665,0.25,0.578,0.64,1.366,0.209c0.831-0.451,2.205-1.671,1.559-2.755
			c0.773,0.135-0.29,1.263,1.027,1.054c0.778-0.123,1.629-0.554,2.281-1.006c0.54-0.37,0.946-1.169,1.698-1.116
			c0.331,0.026,0.657,0.319,0.991,0.382c0.246,0.05,0.454-0.024,0.688,0.064c-0.113,0.068-2.145,1.343-1.267,1.583
			c-0.313,0.654-0.479,1.302-0.687,1.994c-0.22,0.731-0.69,1.338-1.102,1.976c-0.917,1.415-1.7,2.838-2.428,4.308
			c-0.772,0.881-0.778,1.899-0.707,3.023c0.017,0.315-0.273,0.486-0.273,0.799c0,0.379,0.059,0.747-0.067,1.115
			c-0.262,0.745-1.105,1.101-1.19,1.994c-0.071,0.695,0.236,1.56,0.267,2.278v-0.003c0.382,0.9,1,1.29,1.973,1.234
			c0.352-0.021,0.883,0.579,0.969,0.897c0.059,0.204-0.631-0.166-0.519,0.465c-0.251-0.456-0.645-0.391-0.661,0.239
			c-0.01,0.343,0.278,0.872,0.483,1.135c0.142,0.186,0.378-0.146,0.572,0.084c-0.334,0.025-0.288,0.313-0.106,0.534
			c0.197,0.245,0.477,0.122,0.7,0.213c0.29,0.114,0.414,0.039,0.516,0.38c0.083,0.279-0.234,0.531-0.228,0.504
			c-0.06,0.313-0.145,0.332,0.204,0.411c0.164,0.036,0.439,0.279,0.49,0.425c0.133,0.347,0.068,0.125-0.109,0.263
			c-0.061,0.047-0.463-0.131-0.676,0.119c-0.1,0.115-0.051,0.306-0.145,0.41c-0.578,0.638-1.862,1.081-1.898,2.244
			c-0.009,0.318-0.223,0.339-0.316,0.615c-0.098,0.298,0,0.611-0.102,0.906c-0.242,0.706,0.13,1.04,0.359,1.66
			c0.135,0.362,0.183,0.795,0.282,1.167c-0.482,0.026-0.648,0.482-1.099,0.278c-0.148-0.069-0.15-0.288-0.264-0.382
			c-0.221-0.179-0.508-0.249-0.771-0.35c-0.917,0.355-1.041-0.051-1.935-0.313c-0.563-0.165-0.996,0.13-1.439,0.443
			c-0.249,0.173-1.451-0.029-1.719-0.143c-0.227-0.098-0.318-0.359-0.52-0.495c-0.242-0.164-0.603-0.203-0.871-0.282
			c-0.713-0.214-1.623-0.175-2.181-0.588c-0.428-0.322-0.45-0.726-0.679-1.197c-0.41-0.833-0.941-1.823-1.68-2.416
			c-1.692-1.324-3.133-2.306-5.301-2.198c-0.718,0.036-1.783,0.581-2.457,0.349c-0.614-0.213-0.721-0.867-1.465-0.915
			c-0.741-0.052-1.198-0.164-1.814-0.565c-0.433-0.282-0.71-0.68-1.168-0.92c-0.452-0.238-0.728-0.781-1.229-0.963
			c-0.59-0.211-1.307,0.139-1.883-0.257c-0.192-0.133-0.233-0.37-0.422-0.495c-0.403-0.259-0.859-0.411-1.27-0.647
			c-0.597-0.341-0.929-0.674-1.349-1.179c-0.816-0.978-1.916-1.434-3.149-1.353c-0.787,0.052-0.596,0.1-1.04-0.484
			c-0.398-0.527-1.041-1.038-1.746-0.901c-0.671-0.026-1.354-0.118-2.012,0.045c-0.51,0.128-0.993,0.426-1.534,0.414
			c-0.768-0.021-0.964-1.245-1.503-1.658c-0.643-0.494-1.255-0.127-1.763-0.92c-0.213-0.329-0.218-0.727-0.356-1.109
			C87.488,192.157,87.237,191.938,87.012,191.609L87.012,191.609L87.012,191.609z M53.588,94.116
			c0.49-0.328-0.106-0.848-0.378-1.063c0.567-0.302,0.5-0.442,0.555-1.033c0.028-0.307,0.259-0.952-0.208-1.057
			c-0.373-0.083-0.555,0.7-0.765,0.949c-0.153,0.185-0.114,0.346-0.389,0.346c-0.264,0-0.298-0.173-0.21-0.346
			c-0.152-0.005-0.645-0.12-0.762-0.065c-0.238,0.112-0.057,0.452-0.454,0.54c-0.446,0.099-1.396-0.752-1.945,0.025
			c-0.549,0.775,0.49,1.306,1.107,1.202c0.203-0.033,0.433,0.092,0.617,0.023c0.194-0.075,0.085-0.255,0.308-0.294
			c0.33-0.06,0.796-0.278,0.978,0.067c0.057-0.619,0.514-0.197,0.734,0.098C53.057,93.891,53.254,93.822,53.588,94.116
			L53.588,94.116L53.588,94.116z M81.016,213.313c-0.42-0.272-1.871-1.199-1.164-1.859c0.267-0.25,0.378,0.024,0.588,0.033
			c0.042,0,0.534-0.007,0.558,0.005C81.861,211.834,82.305,213.25,81.016,213.313L81.016,213.313L81.016,213.313z"/>
	</g>
	<path fill="#D71F16" d="M128.409,192.243c1.566,0,2.835-1.269,2.835-2.835c0-1.565-1.269-2.835-2.835-2.835
		c-1.565,0-2.834,1.27-2.834,2.835C125.575,190.974,126.844,192.243,128.409,192.243L128.409,192.243z"/>
	<path fill="#D71F16" d="M141.024,119.913c1.565,0,2.834-1.269,2.834-2.835c0-1.565-1.269-2.835-2.834-2.835
		c-1.566,0-2.835,1.27-2.835,2.835C138.189,118.644,139.458,119.913,141.024,119.913L141.024,119.913z"/>
	<path fill="#D71F16" d="M116.22,135.645c1.566,0,2.835-1.27,2.835-2.835c0-1.566-1.269-2.835-2.835-2.835
		c-1.565,0-2.834,1.269-2.834,2.835C113.386,134.375,114.655,135.645,116.22,135.645L116.22,135.645z"/>
</g>
</svg>
