<?xml version="1.0" encoding="utf-8"?>
<!-- Generator: Adobe Illustrator 17.0.0, SVG Export Plug-In . SVG Version: 6.00 Build 0)  -->
<!DOCTYPE svg PUBLIC "-//W3C//DTD SVG 1.1//EN" "http://www.w3.org/Graphics/SVG/1.1/DTD/svg11.dtd">
<svg version="1.1" id="Ebene_1" xmlns="http://www.w3.org/2000/svg" xmlns:xlink="http://www.w3.org/1999/xlink" x="0px" y="0px"
	 width="88px" height="90px" viewBox="0 0 88 90" enable-background="new 0 0 88 90" xml:space="preserve">
<g>
	<path fill="none" stroke="#5C2381" stroke-width="3.5991" d="M16.335,16.408v23.639 M35.442,40.046v23.639 M54.288,60.086v17.995"
		/>
	<polyline fill="#5C2381" points="54.288,83.724 62.546,74.842 46.029,74.842 54.288,83.724 	"/>
	<path fill="none" stroke="#5C2381" stroke-width="3.5991" d="M37.154,41.846H14.536 M56.33,61.885H33.711"/>

		<text transform="matrix(1 0 0 1 2.001 15.4141)" fill="#FFFFFF" font-family="'Faustant'" font-size="13.4967" letter-spacing="-1">Tr</text>
	<text transform="matrix(1 0 0 1 17.0635 15.4141)" fill="#FFFFFF" font-family="'Faustant'" font-size="13.4967">ave</text>
	<text transform="matrix(1 0 0 1 41.0449 15.4141)" fill="#FFFFFF" font-family="'Faustant'" font-size="13.4967">l</text>
	<text transform="matrix(1 0 0 1 2.001 31.6123)" fill="#FFFFFF" font-family="'Faustant'" font-size="13.4967">gu</text>
	<text transform="matrix(1 0 0 1 20.748 31.6123)" fill="#FFFFFF" font-family="'Faustant'" font-size="13.4967">id</text>
	<text transform="matrix(1 0 0 1 34.4121 31.6123)" fill="#FFFFFF" font-family="'Faustant'" font-size="13.4967">e</text>
	<text transform="matrix(1 0 0 1 2.001 47.8125)" fill="#FFFFFF" font-family="'Faustant'" font-size="13.4967">            to </text>

		<text transform="matrix(1 0 0 1 25.4199 87.5723)" fill="#FFFFFF" font-family="'Faustant'" font-size="32.3921" letter-spacing="-1">he</text>

		<text transform="matrix(1 0 0 1 64.0996 87.5723)" fill="#FFFFFF" font-family="'Faustant'" font-size="32.3921" letter-spacing="-1">ll</text>
</g>
</svg>
